<svg viewBox="0 0 1000 760" aria-hidden="true" focusable="false"><rect width="1000" height="760" class="f-bg"/><line x1="685" y1="380" x2="770" y2="380" stroke-width="2.5" opacity="0.52" class="s-line"/><line x1="672" y1="378" x2="649" y2="299" stroke-width="2.5" opacity="0.52" class="s-line"/><line x1="635" y1="371" x2="583" y2="372" stroke-width="2.5" opacity="0.52" class="s-line"/><line x1="579" y1="354" x2="645" y2="353" stroke-width="2.5" opacity="0.52" class="s-line"/><line x1="514" y1="325" x2="471" y2="273" stroke-width="2.5" opacity="0.52" class="s-line"/><line x1="448" y1="287" x2="515" y2="298" stroke-width="2.5" opacity="0.52" class="s-line"/><line x1="391" y1="245" x2="358" y2="187" stroke-width="2.5" opacity="0.52" class="s-line"/><line x1="348" y1="206" x2="373" y2="251" stroke-width="2.5" opacity="0.52" class="s-line"/><line x1="323" y1="177" x2="403" y2="157" stroke-width="2.5" opacity="0.52" class="s-line"/><line x1="315" y1="167" x2="273" y2="93" stroke-width="2.5" opacity="0.52" class="s-line"/><line x1="320" y1="179" x2="263" y2="238" stroke-width="2.5" opacity="0.52" class="s-line"/><line x1="332" y1="215" x2="359" y2="259" stroke-width="2.5" opacity="0.52" class="s-line"/><line x1="345" y1="271" x2="312" y2="214" stroke-width="2.5" opacity="0.52" class="s-line"/><line x1="353" y1="342" x2="329" y2="405" stroke-width="2.5" opacity="0.52" class="s-line"/><line x1="353" y1="418" x2="329" y2="355" stroke-width="2.5" opacity="0.52" class="s-line"/><line x1="345" y1="489" x2="312" y2="546" stroke-width="2.5" opacity="0.52" class="s-line"/><line x1="332" y1="545" x2="359" y2="501" stroke-width="2.5" opacity="0.52" class="s-line"/><line x1="320" y1="581" x2="263" y2="522" stroke-width="2.5" opacity="0.52" class="s-line"/><line x1="315" y1="593" x2="273" y2="667" stroke-width="2.5" opacity="0.52" class="s-line"/><line x1="323" y1="583" x2="403" y2="603" stroke-width="2.5" opacity="0.52" class="s-line"/><line x1="348" y1="554" x2="373" y2="509" stroke-width="2.5" opacity="0.52" class="s-line"/><line x1="391" y1="515" x2="358" y2="573" stroke-width="2.5" opacity="0.52" class="s-line"/><line x1="448" y1="473" x2="515" y2="462" stroke-width="2.5" opacity="0.52" class="s-line"/><line x1="514" y1="435" x2="471" y2="487" stroke-width="2.5" opacity="0.52" class="s-line"/><line x1="579" y1="406" x2="645" y2="407" stroke-width="2.5" opacity="0.52" class="s-line"/><line x1="635" y1="389" x2="583" y2="388" stroke-width="2.5" opacity="0.52" class="s-line"/><line x1="672" y1="382" x2="649" y2="461" stroke-width="2.5" opacity="0.52" class="s-line"/><line x1="685" y1="380" x2="770" y2="380" stroke-width="2.5" opacity="0.52" class="s-line"/><circle cx="708" cy="380" r="23" fill="none" stroke-width="3" opacity="0.75" class="s-line"/><line x1="708" y1="380" x2="770" y2="380" stroke-width="2.5" opacity="0.75" class="s-line"/><circle cx="708" cy="380" r="3" class="f-line"/><circle cx="685" cy="380" r="4" fill="none" stroke-width="3.75" class="s-line"/><path d="M685 380L661 377 637 371 612 365 586 356 560 346 534 335 507 321 481 307 457 293 432 276 408 259 387 241 366 223 347 205 331 186 315 167 324 189 332 212 338 237 344 264 348 291 351 320 353 350 354 379 353 408 352 438 348 467 344 494 338 521 332 548 324 570 315 593 331 574 346 556 365 538 386 520 408 501 432 484 457 467 481 453 507 439 534 425 560 414 586 404 612 395 637 389 661 383 685 380" fill="none" stroke-width="5.75" class="s-base"/><path d="M770 380L768 361 762 344 758 337 751 326 740 315 725 305 707 298 688 295 668 295 645 300 633 305 623 310 607 322 599 331 593 338 587 349 585 358 583 366 583 375 584 383 588 390 592 396 598 400 607 403 618 402 628 396 637 386 643 371 645 358 645 343 641 327 634 311 628 301 615 286 606 277 589 266 576 260 563 256 550 253 529 252 516 253 503 256 486 263 476 269 467 277 459 285 454 293 450 302 448 315 449 322 451 329 455 335 463 341 472 344 480 343 490 339 497 334 506 323 510 314 514 304 516 293 516 281 515 268 512 256 507 243 500 231 493 220 483 210 473 201 462 193 450 187 437 182 425 178 412 176 400 176 388 177 377 179 367 183 354 190 347 195 338 205 334 211 330 221 329 230 330 239 336 247 343 253 353 256 366 254 376 249 387 240 396 228 402 214 405 199 407 185 406 171 403 157 399 143 392 129 384 116 375 106 360 94 350 89 339 85 323 82 312 82 299 83 281 88 264 98 257 104 248 114 238 131 232 146 230 158 231 176 234 193 241 209 250 224 263 238 276 249 293 259 310 265 328 267 343 265 352 263 359 259 369 250 374 244 375 239 376 232 376 227 371 218 363 210 351 206 337 205 320 210 308 217 295 227 284 240 275 256 271 267 266 286 265 300 266 320 269 334 276 353 282 365 294 381 308 394 324 403 335 407 345 409 355 410 365 409 373 406 380 402 386 397 390 391 392 385 393 378 390 369 386 363 380 358 373 354 365 351 355 350 345 351 335 353 324 357 313 363 299 374 290 384 282 395 273 413 269 426 266 440 265 453 266 474 269 486 275 504 281 515 291 529 303 540 316 548 329 553 344 555 358 552 368 546 374 538 376 528 375 521 372 514 368 508 359 501 352 497 343 495 334 493 322 493 313 495 301 498 290 502 280 508 263 522 248 539 237 559 231 578 230 596 232 614 238 629 248 646 261 659 277 669 295 676 312 678 329 677 339 675 350 671 366 662 378 651 389 636 399 617 405 596 407 575 404 555 401 543 397 535 391 525 385 518 378 512 371 508 363 505 355 504 348 505 341 508 336 513 333 517 329 527 330 539 336 552 347 565 358 573 372 579 388 583 406 584 418 583 437 578 450 573 467 563 478 555 488 545 497 534 507 517 512 504 515 492 516 473 515 462 512 451 508 441 503 433 497 426 490 421 483 418 476 416 469 417 460 420 453 428 450 434 448 441 448 450 450 458 454 467 459 475 467 483 476 491 486 497 503 504 516 507 529 508 550 507 563 504 576 500 589 494 606 483 615 474 628 459 634 449 641 433 645 417 645 402 643 389 637 374 628 364 618 358 607 357 598 360 592 364 588 370 584 377 583 385 583 394 585 402 587 411 593 422 599 429 607 438 623 450 633 455 645 460 668 465 688 465 707 462 725 455 740 445 751 434 758 423 762 416 768 399 770 380" fill="none" stroke-width="6.5" stroke-linejoin="round" class="s-derived"/><circle cx="770" cy="380" r="4" class="f-derived"/></svg>
