<svg viewBox="0 0 1000 760" aria-hidden="true" focusable="false"><rect width="1000" height="760" class="f-bg"/><line x1="322" y1="380" x2="796" y2="380" stroke-width="2.5" opacity="0.3" class="s-incident"/><line x1="796" y1="380" x2="322" y2="380" stroke-width="2.5" opacity="0.5" class="s-line"/><line x1="796" y1="380" x2="1271" y2="380" stroke-width="2.5" opacity="0.23" stroke-dasharray="5 5" class="s-line"/><line x1="320" y1="349" x2="794" y2="349" stroke-width="2.5" opacity="0.3" class="s-incident"/><line x1="794" y1="349" x2="332" y2="456" stroke-width="2.5" opacity="0.5" class="s-line"/><line x1="794" y1="349" x2="1257" y2="242" stroke-width="2.5" opacity="0.23" stroke-dasharray="5 5" class="s-line"/><line x1="316" y1="318" x2="790" y2="318" stroke-width="2.5" opacity="0.3" class="s-incident"/><line x1="790" y1="318" x2="352" y2="500" stroke-width="2.5" opacity="0.5" class="s-line"/><line x1="790" y1="318" x2="1228" y2="137" stroke-width="2.5" opacity="0.23" stroke-dasharray="5 5" class="s-line"/><line x1="307" y1="288" x2="782" y2="288" stroke-width="2.5" opacity="0.3" class="s-incident"/><line x1="782" y1="288" x2="406" y2="578" stroke-width="2.5" opacity="0.5" class="s-line"/><line x1="782" y1="288" x2="1157" y2="-2" stroke-width="2.5" opacity="0.23" stroke-dasharray="5 5" class="s-line"/><line x1="296" y1="259" x2="770" y2="259" stroke-width="2.5" opacity="0.3" class="s-incident"/><line x1="770" y1="259" x2="448" y2="607" stroke-width="2.5" opacity="0.5" class="s-line"/><line x1="770" y1="259" x2="1093" y2="-88" stroke-width="2.5" opacity="0.23" stroke-dasharray="5 5" class="s-line"/><line x1="282" y1="231" x2="756" y2="231" stroke-width="2.5" opacity="0.3" class="s-incident"/><line x1="756" y1="231" x2="521" y2="643" stroke-width="2.5" opacity="0.5" class="s-line"/><line x1="756" y1="231" x2="992" y2="-180" stroke-width="2.5" opacity="0.23" stroke-dasharray="5 5" class="s-line"/><line x1="265" y1="205" x2="739" y2="205" stroke-width="2.5" opacity="0.3" class="s-incident"/><line x1="739" y1="205" x2="602" y2="659" stroke-width="2.5" opacity="0.5" class="s-line"/><line x1="739" y1="205" x2="877" y2="-248" stroke-width="2.5" opacity="0.23" stroke-dasharray="5 5" class="s-line"/><line x1="245" y1="181" x2="720" y2="181" stroke-width="2.5" opacity="0.3" class="s-incident"/><line x1="720" y1="181" x2="660" y2="652" stroke-width="2.5" opacity="0.5" class="s-line"/><line x1="720" y1="181" x2="780" y2="-289" stroke-width="2.5" opacity="0.23" stroke-dasharray="5 5" class="s-line"/><line x1="219" y1="155" x2="693" y2="155" stroke-width="2.5" opacity="0.3" class="s-incident"/><line x1="693" y1="155" x2="778" y2="622" stroke-width="2.5" opacity="0.5" class="s-line"/><line x1="693" y1="155" x2="608" y2="-311" stroke-width="2.5" opacity="0.23" stroke-dasharray="5 5" class="s-line"/><line x1="194" y1="136" x2="668" y2="136" stroke-width="2.5" opacity="0.3" class="s-incident"/><line x1="668" y1="136" x2="824" y2="584" stroke-width="2.5" opacity="0.5" class="s-line"/><line x1="668" y1="136" x2="512" y2="-312" stroke-width="2.5" opacity="0.23" stroke-dasharray="5 5" class="s-line"/><line x1="168" y1="120" x2="642" y2="120" stroke-width="2.5" opacity="0.3" class="s-incident"/><line x1="642" y1="120" x2="905" y2="514" stroke-width="2.5" opacity="0.5" class="s-line"/><line x1="642" y1="120" x2="379" y2="-275" stroke-width="2.5" opacity="0.23" stroke-dasharray="5 5" class="s-line"/><line x1="139" y1="107" x2="614" y2="107" stroke-width="2.5" opacity="0.3" class="s-incident"/><line x1="614" y1="107" x2="948" y2="443" stroke-width="2.5" opacity="0.5" class="s-line"/><line x1="614" y1="107" x2="279" y2="-229" stroke-width="2.5" opacity="0.23" stroke-dasharray="5 5" class="s-line"/><line x1="110" y1="96" x2="584" y2="96" stroke-width="2.5" opacity="0.3" class="s-incident"/><line x1="584" y1="96" x2="977" y2="362" stroke-width="2.5" opacity="0.5" class="s-line"/><line x1="584" y1="96" x2="192" y2="-170" stroke-width="2.5" opacity="0.23" stroke-dasharray="5 5" class="s-line"/><line x1="80" y1="89" x2="554" y2="89" stroke-width="2.5" opacity="0.3" class="s-incident"/><line x1="554" y1="89" x2="1001" y2="247" stroke-width="2.5" opacity="0.5" class="s-line"/><line x1="554" y1="89" x2="107" y2="-69" stroke-width="2.5" opacity="0.23" stroke-dasharray="5 5" class="s-line"/><line x1="49" y1="85" x2="523" y2="85" stroke-width="2.5" opacity="0.3" class="s-incident"/><line x1="523" y1="85" x2="989" y2="172" stroke-width="2.5" opacity="0.5" class="s-line"/><line x1="523" y1="85" x2="57" y2="-2" stroke-width="2.5" opacity="0.23" stroke-dasharray="5 5" class="s-line"/><line x1="18" y1="84" x2="492" y2="84" stroke-width="2.5" opacity="0.3" class="s-incident"/><line x1="492" y1="84" x2="965" y2="51" stroke-width="2.5" opacity="0.5" class="s-line"/><line x1="492" y1="84" x2="19" y2="117" stroke-width="2.5" opacity="0.23" stroke-dasharray="5 5" class="s-line"/><line x1="-13" y1="86" x2="461" y2="86" stroke-width="2.5" opacity="0.3" class="s-incident"/><line x1="461" y1="86" x2="919" y2="-37" stroke-width="2.5" opacity="0.5" class="s-line"/><line x1="461" y1="86" x2="3" y2="210" stroke-width="2.5" opacity="0.23" stroke-dasharray="5 5" class="s-line"/><line x1="-44" y1="92" x2="431" y2="92" stroke-width="2.5" opacity="0.3" class="s-incident"/><line x1="431" y1="92" x2="856" y2="-117" stroke-width="2.5" opacity="0.5" class="s-line"/><line x1="431" y1="92" x2="5" y2="301" stroke-width="2.5" opacity="0.23" stroke-dasharray="5 5" class="s-line"/><line x1="-73" y1="101" x2="401" y2="101" stroke-width="2.5" opacity="0.3" class="s-incident"/><line x1="401" y1="101" x2="760" y2="-208" stroke-width="2.5" opacity="0.5" class="s-line"/><line x1="401" y1="101" x2="41" y2="410" stroke-width="2.5" opacity="0.23" stroke-dasharray="5 5" class="s-line"/><line x1="-102" y1="113" x2="372" y2="113" stroke-width="2.5" opacity="0.3" class="s-incident"/><line x1="372" y1="113" x2="680" y2="-248" stroke-width="2.5" opacity="0.5" class="s-line"/><line x1="372" y1="113" x2="65" y2="474" stroke-width="2.5" opacity="0.23" stroke-dasharray="5 5" class="s-line"/><line x1="-130" y1="128" x2="345" y2="128" stroke-width="2.5" opacity="0.3" class="s-incident"/><line x1="345" y1="128" x2="551" y2="-300" stroke-width="2.5" opacity="0.5" class="s-line"/><line x1="345" y1="128" x2="139" y2="555" stroke-width="2.5" opacity="0.23" stroke-dasharray="5 5" class="s-line"/><line x1="-155" y1="146" x2="319" y2="146" stroke-width="2.5" opacity="0.3" class="s-incident"/><line x1="319" y1="146" x2="441" y2="-313" stroke-width="2.5" opacity="0.5" class="s-line"/><line x1="319" y1="146" x2="198" y2="604" stroke-width="2.5" opacity="0.23" stroke-dasharray="5 5" class="s-line"/><line x1="-179" y1="166" x2="295" y2="166" stroke-width="2.5" opacity="0.3" class="s-incident"/><line x1="295" y1="166" x2="325" y2="-308" stroke-width="2.5" opacity="0.5" class="s-line"/><line x1="295" y1="166" x2="266" y2="639" stroke-width="2.5" opacity="0.23" stroke-dasharray="5 5" class="s-line"/><line x1="-204" y1="193" x2="270" y2="193" stroke-width="2.5" opacity="0.3" class="s-incident"/><line x1="270" y1="193" x2="165" y2="-269" stroke-width="2.5" opacity="0.5" class="s-line"/><line x1="270" y1="193" x2="375" y2="656" stroke-width="2.5" opacity="0.23" stroke-dasharray="5 5" class="s-line"/><line x1="-222" y1="218" x2="252" y2="218" stroke-width="2.5" opacity="0.3" class="s-incident"/><line x1="252" y1="218" x2="73" y2="-221" stroke-width="2.5" opacity="0.5" class="s-line"/><line x1="252" y1="218" x2="431" y2="657" stroke-width="2.5" opacity="0.23" stroke-dasharray="5 5" class="s-line"/><line x1="-238" y1="245" x2="236" y2="245" stroke-width="2.5" opacity="0.3" class="s-incident"/><line x1="236" y1="245" x2="-52" y2="-132" stroke-width="2.5" opacity="0.5" class="s-line"/><line x1="236" y1="245" x2="524" y2="622" stroke-width="2.5" opacity="0.23" stroke-dasharray="5 5" class="s-line"/><line x1="-251" y1="274" x2="224" y2="274" stroke-width="2.5" opacity="0.3" class="s-incident"/><line x1="224" y1="274" x2="-123" y2="-50" stroke-width="2.5" opacity="0.5" class="s-line"/><line x1="224" y1="274" x2="570" y2="597" stroke-width="2.5" opacity="0.23" stroke-dasharray="5 5" class="s-line"/><line x1="-260" y1="303" x2="214" y2="303" stroke-width="2.5" opacity="0.3" class="s-incident"/><line x1="214" y1="303" x2="-196" y2="65" stroke-width="2.5" opacity="0.5" class="s-line"/><line x1="214" y1="303" x2="624" y2="541" stroke-width="2.5" opacity="0.23" stroke-dasharray="5 5" class="s-line"/><line x1="-267" y1="334" x2="208" y2="334" stroke-width="2.5" opacity="0.3" class="s-incident"/><line x1="208" y1="334" x2="-246" y2="194" stroke-width="2.5" opacity="0.5" class="s-line"/><line x1="208" y1="334" x2="661" y2="473" stroke-width="2.5" opacity="0.23" stroke-dasharray="5 5" class="s-line"/><line x1="-270" y1="364" x2="204" y2="364" stroke-width="2.5" opacity="0.3" class="s-incident"/><line x1="204" y1="364" x2="-266" y2="302" stroke-width="2.5" opacity="0.5" class="s-line"/><line x1="204" y1="364" x2="674" y2="427" stroke-width="2.5" opacity="0.23" stroke-dasharray="5 5" class="s-line"/><line x1="-270" y1="396" x2="204" y2="396" stroke-width="2.5" opacity="0.3" class="s-incident"/><line x1="204" y1="396" x2="-266" y2="458" stroke-width="2.5" opacity="0.5" class="s-line"/><line x1="204" y1="396" x2="674" y2="333" stroke-width="2.5" opacity="0.23" stroke-dasharray="5 5" class="s-line"/><line x1="-267" y1="426" x2="208" y2="426" stroke-width="2.5" opacity="0.3" class="s-incident"/><line x1="208" y1="426" x2="-246" y2="566" stroke-width="2.5" opacity="0.5" class="s-line"/><line x1="208" y1="426" x2="661" y2="287" stroke-width="2.5" opacity="0.23" stroke-dasharray="5 5" class="s-line"/><line x1="-260" y1="457" x2="214" y2="457" stroke-width="2.5" opacity="0.3" class="s-incident"/><line x1="214" y1="457" x2="-196" y2="695" stroke-width="2.5" opacity="0.5" class="s-line"/><line x1="214" y1="457" x2="624" y2="219" stroke-width="2.5" opacity="0.23" stroke-dasharray="5 5" class="s-line"/><line x1="-251" y1="486" x2="224" y2="486" stroke-width="2.5" opacity="0.3" class="s-incident"/><line x1="224" y1="486" x2="-123" y2="810" stroke-width="2.5" opacity="0.5" class="s-line"/><line x1="224" y1="486" x2="570" y2="163" stroke-width="2.5" opacity="0.23" stroke-dasharray="5 5" class="s-line"/><line x1="-238" y1="515" x2="236" y2="515" stroke-width="2.5" opacity="0.3" class="s-incident"/><line x1="236" y1="515" x2="-52" y2="892" stroke-width="2.5" opacity="0.5" class="s-line"/><line x1="236" y1="515" x2="524" y2="138" stroke-width="2.5" opacity="0.23" stroke-dasharray="5 5" class="s-line"/><line x1="-222" y1="542" x2="252" y2="542" stroke-width="2.5" opacity="0.3" class="s-incident"/><line x1="252" y1="542" x2="73" y2="981" stroke-width="2.5" opacity="0.5" class="s-line"/><line x1="252" y1="542" x2="431" y2="103" stroke-width="2.5" opacity="0.23" stroke-dasharray="5 5" class="s-line"/><line x1="-204" y1="567" x2="270" y2="567" stroke-width="2.5" opacity="0.3" class="s-incident"/><line x1="270" y1="567" x2="165" y2="1029" stroke-width="2.5" opacity="0.5" class="s-line"/><line x1="270" y1="567" x2="375" y2="104" stroke-width="2.5" opacity="0.23" stroke-dasharray="5 5" class="s-line"/><line x1="-179" y1="594" x2="295" y2="594" stroke-width="2.5" opacity="0.3" class="s-incident"/><line x1="295" y1="594" x2="325" y2="1068" stroke-width="2.5" opacity="0.5" class="s-line"/><line x1="295" y1="594" x2="266" y2="121" stroke-width="2.5" opacity="0.23" stroke-dasharray="5 5" class="s-line"/><line x1="-155" y1="614" x2="319" y2="614" stroke-width="2.5" opacity="0.3" class="s-incident"/><line x1="319" y1="614" x2="441" y2="1073" stroke-width="2.5" opacity="0.5" class="s-line"/><line x1="319" y1="614" x2="198" y2="156" stroke-width="2.5" opacity="0.23" stroke-dasharray="5 5" class="s-line"/><line x1="-130" y1="632" x2="345" y2="632" stroke-width="2.5" opacity="0.3" class="s-incident"/><line x1="345" y1="632" x2="551" y2="1060" stroke-width="2.5" opacity="0.5" class="s-line"/><line x1="345" y1="632" x2="139" y2="205" stroke-width="2.5" opacity="0.23" stroke-dasharray="5 5" class="s-line"/><line x1="-102" y1="647" x2="372" y2="647" stroke-width="2.5" opacity="0.3" class="s-incident"/><line x1="372" y1="647" x2="680" y2="1008" stroke-width="2.5" opacity="0.5" class="s-line"/><line x1="372" y1="647" x2="65" y2="286" stroke-width="2.5" opacity="0.23" stroke-dasharray="5 5" class="s-line"/><line x1="-73" y1="659" x2="401" y2="659" stroke-width="2.5" opacity="0.3" class="s-incident"/><line x1="401" y1="659" x2="760" y2="968" stroke-width="2.5" opacity="0.5" class="s-line"/><line x1="401" y1="659" x2="41" y2="350" stroke-width="2.5" opacity="0.23" stroke-dasharray="5 5" class="s-line"/><line x1="-44" y1="668" x2="431" y2="668" stroke-width="2.5" opacity="0.3" class="s-incident"/><line x1="431" y1="668" x2="856" y2="877" stroke-width="2.5" opacity="0.5" class="s-line"/><line x1="431" y1="668" x2="5" y2="459" stroke-width="2.5" opacity="0.23" stroke-dasharray="5 5" class="s-line"/><line x1="-13" y1="674" x2="461" y2="674" stroke-width="2.5" opacity="0.3" class="s-incident"/><line x1="461" y1="674" x2="919" y2="797" stroke-width="2.5" opacity="0.5" class="s-line"/><line x1="461" y1="674" x2="3" y2="550" stroke-width="2.5" opacity="0.23" stroke-dasharray="5 5" class="s-line"/><line x1="18" y1="676" x2="492" y2="676" stroke-width="2.5" opacity="0.3" class="s-incident"/><line x1="492" y1="676" x2="965" y2="709" stroke-width="2.5" opacity="0.5" class="s-line"/><line x1="492" y1="676" x2="19" y2="643" stroke-width="2.5" opacity="0.23" stroke-dasharray="5 5" class="s-line"/><line x1="49" y1="675" x2="523" y2="675" stroke-width="2.5" opacity="0.3" class="s-incident"/><line x1="523" y1="675" x2="989" y2="588" stroke-width="2.5" opacity="0.5" class="s-line"/><line x1="523" y1="675" x2="57" y2="762" stroke-width="2.5" opacity="0.23" stroke-dasharray="5 5" class="s-line"/><line x1="80" y1="671" x2="554" y2="671" stroke-width="2.5" opacity="0.3" class="s-incident"/><line x1="554" y1="671" x2="1001" y2="513" stroke-width="2.5" opacity="0.5" class="s-line"/><line x1="554" y1="671" x2="107" y2="829" stroke-width="2.5" opacity="0.23" stroke-dasharray="5 5" class="s-line"/><line x1="110" y1="664" x2="584" y2="664" stroke-width="2.5" opacity="0.3" class="s-incident"/><line x1="584" y1="664" x2="977" y2="398" stroke-width="2.5" opacity="0.5" class="s-line"/><line x1="584" y1="664" x2="192" y2="930" stroke-width="2.5" opacity="0.23" stroke-dasharray="5 5" class="s-line"/><line x1="139" y1="653" x2="614" y2="653" stroke-width="2.5" opacity="0.3" class="s-incident"/><line x1="614" y1="653" x2="948" y2="317" stroke-width="2.5" opacity="0.5" class="s-line"/><line x1="614" y1="653" x2="279" y2="989" stroke-width="2.5" opacity="0.23" stroke-dasharray="5 5" class="s-line"/><line x1="168" y1="640" x2="642" y2="640" stroke-width="2.5" opacity="0.3" class="s-incident"/><line x1="642" y1="640" x2="905" y2="246" stroke-width="2.5" opacity="0.5" class="s-line"/><line x1="642" y1="640" x2="379" y2="1035" stroke-width="2.5" opacity="0.23" stroke-dasharray="5 5" class="s-line"/><line x1="194" y1="624" x2="668" y2="624" stroke-width="2.5" opacity="0.3" class="s-incident"/><line x1="668" y1="624" x2="824" y2="176" stroke-width="2.5" opacity="0.5" class="s-line"/><line x1="668" y1="624" x2="512" y2="1072" stroke-width="2.5" opacity="0.23" stroke-dasharray="5 5" class="s-line"/><line x1="219" y1="605" x2="693" y2="605" stroke-width="2.5" opacity="0.3" class="s-incident"/><line x1="693" y1="605" x2="778" y2="138" stroke-width="2.5" opacity="0.5" class="s-line"/><line x1="693" y1="605" x2="608" y2="1071" stroke-width="2.5" opacity="0.23" stroke-dasharray="5 5" class="s-line"/><line x1="245" y1="579" x2="720" y2="579" stroke-width="2.5" opacity="0.3" class="s-incident"/><line x1="720" y1="579" x2="660" y2="108" stroke-width="2.5" opacity="0.5" class="s-line"/><line x1="720" y1="579" x2="780" y2="1049" stroke-width="2.5" opacity="0.23" stroke-dasharray="5 5" class="s-line"/><line x1="265" y1="555" x2="739" y2="555" stroke-width="2.5" opacity="0.3" class="s-incident"/><line x1="739" y1="555" x2="602" y2="101" stroke-width="2.5" opacity="0.5" class="s-line"/><line x1="739" y1="555" x2="877" y2="1008" stroke-width="2.5" opacity="0.23" stroke-dasharray="5 5" class="s-line"/><line x1="282" y1="529" x2="756" y2="529" stroke-width="2.5" opacity="0.3" class="s-incident"/><line x1="756" y1="529" x2="521" y2="117" stroke-width="2.5" opacity="0.5" class="s-line"/><line x1="756" y1="529" x2="992" y2="940" stroke-width="2.5" opacity="0.23" stroke-dasharray="5 5" class="s-line"/><line x1="296" y1="501" x2="770" y2="501" stroke-width="2.5" opacity="0.3" class="s-incident"/><line x1="770" y1="501" x2="448" y2="153" stroke-width="2.5" opacity="0.5" class="s-line"/><line x1="770" y1="501" x2="1093" y2="848" stroke-width="2.5" opacity="0.23" stroke-dasharray="5 5" class="s-line"/><line x1="307" y1="472" x2="782" y2="472" stroke-width="2.5" opacity="0.3" class="s-incident"/><line x1="782" y1="472" x2="406" y2="182" stroke-width="2.5" opacity="0.5" class="s-line"/><line x1="782" y1="472" x2="1157" y2="762" stroke-width="2.5" opacity="0.23" stroke-dasharray="5 5" class="s-line"/><line x1="316" y1="442" x2="790" y2="442" stroke-width="2.5" opacity="0.3" class="s-incident"/><line x1="790" y1="442" x2="352" y2="260" stroke-width="2.5" opacity="0.5" class="s-line"/><line x1="790" y1="442" x2="1228" y2="623" stroke-width="2.5" opacity="0.23" stroke-dasharray="5 5" class="s-line"/><line x1="320" y1="411" x2="794" y2="411" stroke-width="2.5" opacity="0.3" class="s-incident"/><line x1="794" y1="411" x2="332" y2="304" stroke-width="2.5" opacity="0.5" class="s-line"/><line x1="794" y1="411" x2="1257" y2="518" stroke-width="2.5" opacity="0.23" stroke-dasharray="5 5" class="s-line"/><line x1="322" y1="380" x2="796" y2="380" stroke-width="2.5" opacity="0.3" class="s-incident"/><line x1="796" y1="380" x2="322" y2="380" stroke-width="2.5" opacity="0.5" class="s-line"/><line x1="796" y1="380" x2="1271" y2="380" stroke-width="2.5" opacity="0.23" stroke-dasharray="5 5" class="s-line"/><path d="M796 380L794 349 790 318 784 294 775 271 762 242 750 221 732 196 711 172 688 151 663 133 642 120 614 107 584 96 560 90 529 85 498 84 467 86 437 91 413 97 383 108 361 118 339 131 314 149 291 170 270 193 252 218 239 240 228 262 217 291 211 315 206 346 204 377 205 408 210 439 215 463 226 492 239 520 252 542 270 567 291 590 314 611 339 629 361 642 383 652 413 663 437 669 467 674 498 676 529 675 560 670 584 664 614 653 642 640 663 627 688 609 711 588 732 564 750 539 762 518 775 489 784 466 790 442 794 411 796 380" fill="none" stroke-width="5.75" class="s-base"/><path d="M686 380L663 382 640 386 577 399 614 388 645 377 678 364 695 356 665 379 626 415 655 384 676 359 698 332 710 313 700 337 688 374 698 332 704 303 708 270 709 244 716 280 705 241 692 207 682 183 671 163 677 170 651 145 629 127 608 112 590 102 571 95 538 88 517 84 500 84M500 676L517 676 538 672 571 665 590 658 608 648 629 633 651 615 677 590 671 597 682 577 692 553 705 519 716 480 709 516 708 490 704 457 698 428 688 386 700 423 710 447 698 428 676 401 655 376 626 345 665 381 695 404 678 396 645 383 614 372 577 361 640 374 663 378 686 380" fill="none" stroke-width="6.5" stroke-linejoin="round" class="s-derived"/><path d="M500 84L478 85 456 89 426 96 407 103 392 112 377 123 349 145 323 170 329 163 318 183 308 207 295 241 284 280 291 244 292 270 296 303 302 332 312 374 300 337 290 313 302 332 324 359 345 384 374 415 335 379 305 356 322 364 355 377 386 388 423 399 360 386 337 382 314 380 337 378 360 374 423 361 386 372 355 383 322 396 305 404 335 381 374 345 345 376 324 401 302 428 290 447 300 423 312 386 302 428 296 457 292 490 291 516 284 480 295 519 308 553 318 577 329 597 323 590 349 615 371 633 392 648 407 657 426 664 456 671 478 675 500 676" fill="none" stroke-width="5.75" stroke-dasharray="6 4" class="s-derived"/></svg>
