<svg viewBox="0 0 1000 760" aria-hidden="true" focusable="false"><rect width="1000" height="760" class="f-bg"/><line x1="598" y1="380" x2="712" y2="380" stroke-width="2.5" opacity="0.3" class="s-incident"/><line x1="712" y1="380" x2="238" y2="380" stroke-width="2.5" opacity="0.5" class="s-line"/><line x1="712" y1="380" x2="1186" y2="380" stroke-width="2.5" opacity="0.23" stroke-dasharray="5 5" class="s-line"/><line x1="598" y1="380" x2="711" y2="368" stroke-width="2.5" opacity="0.3" class="s-incident"/><line x1="711" y1="368" x2="242" y2="437" stroke-width="2.5" opacity="0.5" class="s-line"/><line x1="711" y1="368" x2="1180" y2="299" stroke-width="2.5" opacity="0.23" stroke-dasharray="5 5" class="s-line"/><line x1="598" y1="380" x2="709" y2="356" stroke-width="2.5" opacity="0.3" class="s-incident"/><line x1="709" y1="356" x2="253" y2="488" stroke-width="2.5" opacity="0.5" class="s-line"/><line x1="709" y1="356" x2="1165" y2="225" stroke-width="2.5" opacity="0.23" stroke-dasharray="5 5" class="s-line"/><line x1="598" y1="380" x2="705" y2="345" stroke-width="2.5" opacity="0.3" class="s-incident"/><line x1="705" y1="345" x2="271" y2="535" stroke-width="2.5" opacity="0.5" class="s-line"/><line x1="705" y1="345" x2="1139" y2="154" stroke-width="2.5" opacity="0.23" stroke-dasharray="5 5" class="s-line"/><line x1="598" y1="380" x2="700" y2="334" stroke-width="2.5" opacity="0.3" class="s-incident"/><line x1="700" y1="334" x2="291" y2="573" stroke-width="2.5" opacity="0.5" class="s-line"/><line x1="700" y1="334" x2="1110" y2="95" stroke-width="2.5" opacity="0.23" stroke-dasharray="5 5" class="s-line"/><line x1="598" y1="380" x2="694" y2="323" stroke-width="2.5" opacity="0.3" class="s-incident"/><line x1="694" y1="323" x2="311" y2="603" stroke-width="2.5" opacity="0.5" class="s-line"/><line x1="694" y1="323" x2="1076" y2="42" stroke-width="2.5" opacity="0.23" stroke-dasharray="5 5" class="s-line"/><line x1="598" y1="380" x2="686" y2="312" stroke-width="2.5" opacity="0.3" class="s-incident"/><line x1="686" y1="312" x2="329" y2="625" stroke-width="2.5" opacity="0.5" class="s-line"/><line x1="686" y1="312" x2="1043" y2="0" stroke-width="2.5" opacity="0.23" stroke-dasharray="5 5" class="s-line"/><line x1="598" y1="380" x2="677" y2="302" stroke-width="2.5" opacity="0.3" class="s-incident"/><line x1="677" y1="302" x2="344" y2="640" stroke-width="2.5" opacity="0.5" class="s-line"/><line x1="677" y1="302" x2="1010" y2="-36" stroke-width="2.5" opacity="0.23" stroke-dasharray="5 5" class="s-line"/><line x1="598" y1="380" x2="667" y2="293" stroke-width="2.5" opacity="0.3" class="s-incident"/><line x1="667" y1="293" x2="353" y2="649" stroke-width="2.5" opacity="0.5" class="s-line"/><line x1="667" y1="293" x2="981" y2="-63" stroke-width="2.5" opacity="0.23" stroke-dasharray="5 5" class="s-line"/><line x1="598" y1="380" x2="655" y2="284" stroke-width="2.5" opacity="0.3" class="s-incident"/><line x1="655" y1="284" x2="358" y2="653" stroke-width="2.5" opacity="0.5" class="s-line"/><line x1="655" y1="284" x2="953" y2="-85" stroke-width="2.5" opacity="0.23" stroke-dasharray="5 5" class="s-line"/><line x1="598" y1="380" x2="643" y2="277" stroke-width="2.5" opacity="0.3" class="s-incident"/><line x1="643" y1="277" x2="357" y2="655" stroke-width="2.5" opacity="0.5" class="s-line"/><line x1="643" y1="277" x2="929" y2="-102" stroke-width="2.5" opacity="0.23" stroke-dasharray="5 5" class="s-line"/><line x1="598" y1="380" x2="630" y2="269" stroke-width="2.5" opacity="0.3" class="s-incident"/><line x1="630" y1="269" x2="352" y2="654" stroke-width="2.5" opacity="0.5" class="s-line"/><line x1="630" y1="269" x2="907" y2="-115" stroke-width="2.5" opacity="0.23" stroke-dasharray="5 5" class="s-line"/><line x1="598" y1="380" x2="616" y2="263" stroke-width="2.5" opacity="0.3" class="s-incident"/><line x1="616" y1="263" x2="345" y2="652" stroke-width="2.5" opacity="0.5" class="s-line"/><line x1="616" y1="263" x2="887" y2="-126" stroke-width="2.5" opacity="0.23" stroke-dasharray="5 5" class="s-line"/><line x1="598" y1="380" x2="601" y2="258" stroke-width="2.5" opacity="0.3" class="s-incident"/><line x1="601" y1="258" x2="335" y2="651" stroke-width="2.5" opacity="0.5" class="s-line"/><line x1="601" y1="258" x2="866" y2="-135" stroke-width="2.5" opacity="0.23" stroke-dasharray="5 5" class="s-line"/><line x1="598" y1="380" x2="586" y2="254" stroke-width="2.5" opacity="0.3" class="s-incident"/><line x1="586" y1="254" x2="325" y2="650" stroke-width="2.5" opacity="0.5" class="s-line"/><line x1="586" y1="254" x2="846" y2="-143" stroke-width="2.5" opacity="0.23" stroke-dasharray="5 5" class="s-line"/><line x1="598" y1="380" x2="570" y2="250" stroke-width="2.5" opacity="0.3" class="s-incident"/><line x1="570" y1="250" x2="315" y2="650" stroke-width="2.5" opacity="0.5" class="s-line"/><line x1="570" y1="250" x2="824" y2="-150" stroke-width="2.5" opacity="0.23" stroke-dasharray="5 5" class="s-line"/><line x1="598" y1="380" x2="554" y2="248" stroke-width="2.5" opacity="0.3" class="s-incident"/><line x1="554" y1="248" x2="306" y2="653" stroke-width="2.5" opacity="0.5" class="s-line"/><line x1="554" y1="248" x2="801" y2="-157" stroke-width="2.5" opacity="0.23" stroke-dasharray="5 5" class="s-line"/><line x1="598" y1="380" x2="537" y2="247" stroke-width="2.5" opacity="0.3" class="s-incident"/><line x1="537" y1="247" x2="299" y2="657" stroke-width="2.5" opacity="0.5" class="s-line"/><line x1="537" y1="247" x2="774" y2="-164" stroke-width="2.5" opacity="0.23" stroke-dasharray="5 5" class="s-line"/><line x1="598" y1="380" x2="521" y2="246" stroke-width="2.5" opacity="0.3" class="s-incident"/><line x1="521" y1="246" x2="295" y2="663" stroke-width="2.5" opacity="0.5" class="s-line"/><line x1="521" y1="246" x2="746" y2="-171" stroke-width="2.5" opacity="0.23" stroke-dasharray="5 5" class="s-line"/><line x1="598" y1="380" x2="504" y2="247" stroke-width="2.5" opacity="0.3" class="s-incident"/><line x1="504" y1="247" x2="294" y2="672" stroke-width="2.5" opacity="0.5" class="s-line"/><line x1="504" y1="247" x2="714" y2="-178" stroke-width="2.5" opacity="0.23" stroke-dasharray="5 5" class="s-line"/><line x1="598" y1="380" x2="488" y2="249" stroke-width="2.5" opacity="0.3" class="s-incident"/><line x1="488" y1="249" x2="296" y2="683" stroke-width="2.5" opacity="0.5" class="s-line"/><line x1="488" y1="249" x2="679" y2="-185" stroke-width="2.5" opacity="0.23" stroke-dasharray="5 5" class="s-line"/><line x1="598" y1="380" x2="471" y2="252" stroke-width="2.5" opacity="0.3" class="s-incident"/><line x1="471" y1="252" x2="303" y2="695" stroke-width="2.5" opacity="0.5" class="s-line"/><line x1="471" y1="252" x2="640" y2="-192" stroke-width="2.5" opacity="0.23" stroke-dasharray="5 5" class="s-line"/><line x1="598" y1="380" x2="456" y2="255" stroke-width="2.5" opacity="0.3" class="s-incident"/><line x1="456" y1="255" x2="314" y2="708" stroke-width="2.5" opacity="0.5" class="s-line"/><line x1="456" y1="255" x2="598" y2="-197" stroke-width="2.5" opacity="0.23" stroke-dasharray="5 5" class="s-line"/><line x1="598" y1="380" x2="441" y2="260" stroke-width="2.5" opacity="0.3" class="s-incident"/><line x1="441" y1="260" x2="331" y2="722" stroke-width="2.5" opacity="0.5" class="s-line"/><line x1="441" y1="260" x2="550" y2="-201" stroke-width="2.5" opacity="0.23" stroke-dasharray="5 5" class="s-line"/><line x1="598" y1="380" x2="426" y2="266" stroke-width="2.5" opacity="0.3" class="s-incident"/><line x1="426" y1="266" x2="353" y2="735" stroke-width="2.5" opacity="0.5" class="s-line"/><line x1="426" y1="266" x2="498" y2="-202" stroke-width="2.5" opacity="0.23" stroke-dasharray="5 5" class="s-line"/><line x1="598" y1="380" x2="412" y2="273" stroke-width="2.5" opacity="0.3" class="s-incident"/><line x1="412" y1="273" x2="381" y2="746" stroke-width="2.5" opacity="0.5" class="s-line"/><line x1="412" y1="273" x2="444" y2="-200" stroke-width="2.5" opacity="0.23" stroke-dasharray="5 5" class="s-line"/><line x1="598" y1="380" x2="399" y2="280" stroke-width="2.5" opacity="0.3" class="s-incident"/><line x1="399" y1="280" x2="416" y2="754" stroke-width="2.5" opacity="0.5" class="s-line"/><line x1="399" y1="280" x2="383" y2="-193" stroke-width="2.5" opacity="0.23" stroke-dasharray="5 5" class="s-line"/><line x1="598" y1="380" x2="388" y2="289" stroke-width="2.5" opacity="0.3" class="s-incident"/><line x1="388" y1="289" x2="455" y2="758" stroke-width="2.5" opacity="0.5" class="s-line"/><line x1="388" y1="289" x2="320" y2="-181" stroke-width="2.5" opacity="0.23" stroke-dasharray="5 5" class="s-line"/><line x1="598" y1="380" x2="377" y2="298" stroke-width="2.5" opacity="0.3" class="s-incident"/><line x1="377" y1="298" x2="503" y2="755" stroke-width="2.5" opacity="0.5" class="s-line"/><line x1="377" y1="298" x2="251" y2="-159" stroke-width="2.5" opacity="0.23" stroke-dasharray="5 5" class="s-line"/><line x1="598" y1="380" x2="367" y2="307" stroke-width="2.5" opacity="0.3" class="s-incident"/><line x1="367" y1="307" x2="553" y2="744" stroke-width="2.5" opacity="0.5" class="s-line"/><line x1="367" y1="307" x2="182" y2="-129" stroke-width="2.5" opacity="0.23" stroke-dasharray="5 5" class="s-line"/><line x1="598" y1="380" x2="359" y2="318" stroke-width="2.5" opacity="0.3" class="s-incident"/><line x1="359" y1="318" x2="608" y2="721" stroke-width="2.5" opacity="0.5" class="s-line"/><line x1="359" y1="318" x2="109" y2="-86" stroke-width="2.5" opacity="0.23" stroke-dasharray="5 5" class="s-line"/><line x1="598" y1="380" x2="352" y2="328" stroke-width="2.5" opacity="0.3" class="s-incident"/><line x1="352" y1="328" x2="662" y2="687" stroke-width="2.5" opacity="0.5" class="s-line"/><line x1="352" y1="328" x2="42" y2="-31" stroke-width="2.5" opacity="0.23" stroke-dasharray="5 5" class="s-line"/><line x1="598" y1="380" x2="346" y2="339" stroke-width="2.5" opacity="0.3" class="s-incident"/><line x1="346" y1="339" x2="715" y2="637" stroke-width="2.5" opacity="0.5" class="s-line"/><line x1="346" y1="339" x2="-23" y2="41" stroke-width="2.5" opacity="0.23" stroke-dasharray="5 5" class="s-line"/><line x1="598" y1="380" x2="342" y2="351" stroke-width="2.5" opacity="0.3" class="s-incident"/><line x1="342" y1="351" x2="759" y2="577" stroke-width="2.5" opacity="0.5" class="s-line"/><line x1="342" y1="351" x2="-75" y2="124" stroke-width="2.5" opacity="0.23" stroke-dasharray="5 5" class="s-line"/><line x1="598" y1="380" x2="339" y2="362" stroke-width="2.5" opacity="0.3" class="s-incident"/><line x1="339" y1="362" x2="792" y2="502" stroke-width="2.5" opacity="0.5" class="s-line"/><line x1="339" y1="362" x2="-114" y2="223" stroke-width="2.5" opacity="0.23" stroke-dasharray="5 5" class="s-line"/><line x1="598" y1="380" x2="337" y2="374" stroke-width="2.5" opacity="0.3" class="s-incident"/><line x1="337" y1="374" x2="809" y2="423" stroke-width="2.5" opacity="0.5" class="s-line"/><line x1="337" y1="374" x2="-134" y2="325" stroke-width="2.5" opacity="0.23" stroke-dasharray="5 5" class="s-line"/><line x1="598" y1="380" x2="337" y2="386" stroke-width="2.5" opacity="0.3" class="s-incident"/><line x1="337" y1="386" x2="809" y2="337" stroke-width="2.5" opacity="0.5" class="s-line"/><line x1="337" y1="386" x2="-134" y2="435" stroke-width="2.5" opacity="0.23" stroke-dasharray="5 5" class="s-line"/><line x1="598" y1="380" x2="339" y2="398" stroke-width="2.5" opacity="0.3" class="s-incident"/><line x1="339" y1="398" x2="792" y2="258" stroke-width="2.5" opacity="0.5" class="s-line"/><line x1="339" y1="398" x2="-114" y2="537" stroke-width="2.5" opacity="0.23" stroke-dasharray="5 5" class="s-line"/><line x1="598" y1="380" x2="342" y2="409" stroke-width="2.5" opacity="0.3" class="s-incident"/><line x1="342" y1="409" x2="759" y2="183" stroke-width="2.5" opacity="0.5" class="s-line"/><line x1="342" y1="409" x2="-75" y2="636" stroke-width="2.5" opacity="0.23" stroke-dasharray="5 5" class="s-line"/><line x1="598" y1="380" x2="346" y2="421" stroke-width="2.5" opacity="0.3" class="s-incident"/><line x1="346" y1="421" x2="715" y2="123" stroke-width="2.5" opacity="0.5" class="s-line"/><line x1="346" y1="421" x2="-23" y2="719" stroke-width="2.5" opacity="0.23" stroke-dasharray="5 5" class="s-line"/><line x1="598" y1="380" x2="352" y2="432" stroke-width="2.5" opacity="0.3" class="s-incident"/><line x1="352" y1="432" x2="662" y2="73" stroke-width="2.5" opacity="0.5" class="s-line"/><line x1="352" y1="432" x2="42" y2="791" stroke-width="2.5" opacity="0.23" stroke-dasharray="5 5" class="s-line"/><line x1="598" y1="380" x2="359" y2="442" stroke-width="2.5" opacity="0.3" class="s-incident"/><line x1="359" y1="442" x2="608" y2="39" stroke-width="2.5" opacity="0.5" class="s-line"/><line x1="359" y1="442" x2="109" y2="846" stroke-width="2.5" opacity="0.23" stroke-dasharray="5 5" class="s-line"/><line x1="598" y1="380" x2="367" y2="453" stroke-width="2.5" opacity="0.3" class="s-incident"/><line x1="367" y1="453" x2="553" y2="16" stroke-width="2.5" opacity="0.5" class="s-line"/><line x1="367" y1="453" x2="182" y2="889" stroke-width="2.5" opacity="0.23" stroke-dasharray="5 5" class="s-line"/><line x1="598" y1="380" x2="377" y2="462" stroke-width="2.5" opacity="0.3" class="s-incident"/><line x1="377" y1="462" x2="503" y2="5" stroke-width="2.5" opacity="0.5" class="s-line"/><line x1="377" y1="462" x2="251" y2="919" stroke-width="2.5" opacity="0.23" stroke-dasharray="5 5" class="s-line"/><line x1="598" y1="380" x2="388" y2="471" stroke-width="2.5" opacity="0.3" class="s-incident"/><line x1="388" y1="471" x2="455" y2="2" stroke-width="2.5" opacity="0.5" class="s-line"/><line x1="388" y1="471" x2="320" y2="941" stroke-width="2.5" opacity="0.23" stroke-dasharray="5 5" class="s-line"/><line x1="598" y1="380" x2="399" y2="480" stroke-width="2.5" opacity="0.3" class="s-incident"/><line x1="399" y1="480" x2="416" y2="6" stroke-width="2.5" opacity="0.5" class="s-line"/><line x1="399" y1="480" x2="383" y2="953" stroke-width="2.5" opacity="0.23" stroke-dasharray="5 5" class="s-line"/><line x1="598" y1="380" x2="412" y2="487" stroke-width="2.5" opacity="0.3" class="s-incident"/><line x1="412" y1="487" x2="381" y2="14" stroke-width="2.5" opacity="0.5" class="s-line"/><line x1="412" y1="487" x2="444" y2="960" stroke-width="2.5" opacity="0.23" stroke-dasharray="5 5" class="s-line"/><line x1="598" y1="380" x2="426" y2="494" stroke-width="2.5" opacity="0.3" class="s-incident"/><line x1="426" y1="494" x2="353" y2="25" stroke-width="2.5" opacity="0.5" class="s-line"/><line x1="426" y1="494" x2="498" y2="962" stroke-width="2.5" opacity="0.23" stroke-dasharray="5 5" class="s-line"/><line x1="598" y1="380" x2="441" y2="500" stroke-width="2.5" opacity="0.3" class="s-incident"/><line x1="441" y1="500" x2="331" y2="38" stroke-width="2.5" opacity="0.5" class="s-line"/><line x1="441" y1="500" x2="550" y2="961" stroke-width="2.5" opacity="0.23" stroke-dasharray="5 5" class="s-line"/><line x1="598" y1="380" x2="456" y2="505" stroke-width="2.5" opacity="0.3" class="s-incident"/><line x1="456" y1="505" x2="314" y2="52" stroke-width="2.5" opacity="0.5" class="s-line"/><line x1="456" y1="505" x2="598" y2="957" stroke-width="2.5" opacity="0.23" stroke-dasharray="5 5" class="s-line"/><line x1="598" y1="380" x2="471" y2="508" stroke-width="2.5" opacity="0.3" class="s-incident"/><line x1="471" y1="508" x2="303" y2="65" stroke-width="2.5" opacity="0.5" class="s-line"/><line x1="471" y1="508" x2="640" y2="952" stroke-width="2.5" opacity="0.23" stroke-dasharray="5 5" class="s-line"/><line x1="598" y1="380" x2="488" y2="511" stroke-width="2.5" opacity="0.3" class="s-incident"/><line x1="488" y1="511" x2="296" y2="77" stroke-width="2.5" opacity="0.5" class="s-line"/><line x1="488" y1="511" x2="679" y2="945" stroke-width="2.5" opacity="0.23" stroke-dasharray="5 5" class="s-line"/><line x1="598" y1="380" x2="504" y2="513" stroke-width="2.5" opacity="0.3" class="s-incident"/><line x1="504" y1="513" x2="294" y2="88" stroke-width="2.5" opacity="0.5" class="s-line"/><line x1="504" y1="513" x2="714" y2="938" stroke-width="2.5" opacity="0.23" stroke-dasharray="5 5" class="s-line"/><line x1="598" y1="380" x2="521" y2="514" stroke-width="2.5" opacity="0.3" class="s-incident"/><line x1="521" y1="514" x2="295" y2="97" stroke-width="2.5" opacity="0.5" class="s-line"/><line x1="521" y1="514" x2="746" y2="931" stroke-width="2.5" opacity="0.23" stroke-dasharray="5 5" class="s-line"/><line x1="598" y1="380" x2="537" y2="513" stroke-width="2.5" opacity="0.3" class="s-incident"/><line x1="537" y1="513" x2="299" y2="103" stroke-width="2.5" opacity="0.5" class="s-line"/><line x1="537" y1="513" x2="774" y2="924" stroke-width="2.5" opacity="0.23" stroke-dasharray="5 5" class="s-line"/><line x1="598" y1="380" x2="554" y2="512" stroke-width="2.5" opacity="0.3" class="s-incident"/><line x1="554" y1="512" x2="306" y2="107" stroke-width="2.5" opacity="0.5" class="s-line"/><line x1="554" y1="512" x2="801" y2="917" stroke-width="2.5" opacity="0.23" stroke-dasharray="5 5" class="s-line"/><line x1="598" y1="380" x2="570" y2="510" stroke-width="2.5" opacity="0.3" class="s-incident"/><line x1="570" y1="510" x2="315" y2="110" stroke-width="2.5" opacity="0.5" class="s-line"/><line x1="570" y1="510" x2="824" y2="910" stroke-width="2.5" opacity="0.23" stroke-dasharray="5 5" class="s-line"/><line x1="598" y1="380" x2="586" y2="506" stroke-width="2.5" opacity="0.3" class="s-incident"/><line x1="586" y1="506" x2="325" y2="110" stroke-width="2.5" opacity="0.5" class="s-line"/><line x1="586" y1="506" x2="846" y2="903" stroke-width="2.5" opacity="0.23" stroke-dasharray="5 5" class="s-line"/><line x1="598" y1="380" x2="601" y2="502" stroke-width="2.5" opacity="0.3" class="s-incident"/><line x1="601" y1="502" x2="335" y2="109" stroke-width="2.5" opacity="0.5" class="s-line"/><line x1="601" y1="502" x2="866" y2="895" stroke-width="2.5" opacity="0.23" stroke-dasharray="5 5" class="s-line"/><line x1="598" y1="380" x2="616" y2="497" stroke-width="2.5" opacity="0.3" class="s-incident"/><line x1="616" y1="497" x2="345" y2="108" stroke-width="2.5" opacity="0.5" class="s-line"/><line x1="616" y1="497" x2="887" y2="886" stroke-width="2.5" opacity="0.23" stroke-dasharray="5 5" class="s-line"/><line x1="598" y1="380" x2="630" y2="491" stroke-width="2.5" opacity="0.3" class="s-incident"/><line x1="630" y1="491" x2="352" y2="106" stroke-width="2.5" opacity="0.5" class="s-line"/><line x1="630" y1="491" x2="907" y2="875" stroke-width="2.5" opacity="0.23" stroke-dasharray="5 5" class="s-line"/><line x1="598" y1="380" x2="643" y2="483" stroke-width="2.5" opacity="0.3" class="s-incident"/><line x1="643" y1="483" x2="357" y2="105" stroke-width="2.5" opacity="0.5" class="s-line"/><line x1="643" y1="483" x2="929" y2="862" stroke-width="2.5" opacity="0.23" stroke-dasharray="5 5" class="s-line"/><line x1="598" y1="380" x2="655" y2="476" stroke-width="2.5" opacity="0.3" class="s-incident"/><line x1="655" y1="476" x2="358" y2="107" stroke-width="2.5" opacity="0.5" class="s-line"/><line x1="655" y1="476" x2="953" y2="845" stroke-width="2.5" opacity="0.23" stroke-dasharray="5 5" class="s-line"/><line x1="598" y1="380" x2="667" y2="467" stroke-width="2.5" opacity="0.3" class="s-incident"/><line x1="667" y1="467" x2="353" y2="111" stroke-width="2.5" opacity="0.5" class="s-line"/><line x1="667" y1="467" x2="981" y2="823" stroke-width="2.5" opacity="0.23" stroke-dasharray="5 5" class="s-line"/><line x1="598" y1="380" x2="677" y2="458" stroke-width="2.5" opacity="0.3" class="s-incident"/><line x1="677" y1="458" x2="344" y2="120" stroke-width="2.5" opacity="0.5" class="s-line"/><line x1="677" y1="458" x2="1010" y2="796" stroke-width="2.5" opacity="0.23" stroke-dasharray="5 5" class="s-line"/><line x1="598" y1="380" x2="686" y2="448" stroke-width="2.5" opacity="0.3" class="s-incident"/><line x1="686" y1="448" x2="329" y2="135" stroke-width="2.5" opacity="0.5" class="s-line"/><line x1="686" y1="448" x2="1043" y2="760" stroke-width="2.5" opacity="0.23" stroke-dasharray="5 5" class="s-line"/><line x1="598" y1="380" x2="694" y2="437" stroke-width="2.5" opacity="0.3" class="s-incident"/><line x1="694" y1="437" x2="311" y2="157" stroke-width="2.5" opacity="0.5" class="s-line"/><line x1="694" y1="437" x2="1076" y2="718" stroke-width="2.5" opacity="0.23" stroke-dasharray="5 5" class="s-line"/><line x1="598" y1="380" x2="700" y2="426" stroke-width="2.5" opacity="0.3" class="s-incident"/><line x1="700" y1="426" x2="291" y2="187" stroke-width="2.5" opacity="0.5" class="s-line"/><line x1="700" y1="426" x2="1110" y2="665" stroke-width="2.5" opacity="0.23" stroke-dasharray="5 5" class="s-line"/><line x1="598" y1="380" x2="705" y2="415" stroke-width="2.5" opacity="0.3" class="s-incident"/><line x1="705" y1="415" x2="271" y2="225" stroke-width="2.5" opacity="0.5" class="s-line"/><line x1="705" y1="415" x2="1139" y2="606" stroke-width="2.5" opacity="0.23" stroke-dasharray="5 5" class="s-line"/><line x1="598" y1="380" x2="709" y2="404" stroke-width="2.5" opacity="0.3" class="s-incident"/><line x1="709" y1="404" x2="253" y2="272" stroke-width="2.5" opacity="0.5" class="s-line"/><line x1="709" y1="404" x2="1165" y2="535" stroke-width="2.5" opacity="0.23" stroke-dasharray="5 5" class="s-line"/><line x1="598" y1="380" x2="711" y2="392" stroke-width="2.5" opacity="0.3" class="s-incident"/><line x1="711" y1="392" x2="242" y2="323" stroke-width="2.5" opacity="0.5" class="s-line"/><line x1="711" y1="392" x2="1180" y2="461" stroke-width="2.5" opacity="0.23" stroke-dasharray="5 5" class="s-line"/><line x1="598" y1="380" x2="712" y2="380" stroke-width="2.5" opacity="0.3" class="s-incident"/><line x1="712" y1="380" x2="238" y2="380" stroke-width="2.5" opacity="0.5" class="s-line"/><line x1="712" y1="380" x2="1186" y2="380" stroke-width="2.5" opacity="0.23" stroke-dasharray="5 5" class="s-line"/><path d="M712 380L711 367 708 354 704 341 698 329 690 317 680 306 669 295 657 286 644 277 629 269 613 262 597 257 579 252 562 249 543 247 525 246 507 247 489 249 471 252 453 256 437 262 421 269 406 276 392 285 380 295 369 305 360 317 352 329 345 341 341 354 338 367 337 380 338 393 341 406 345 419 351 431 359 443 369 454 380 465 392 474 406 483 420 491 436 498 453 504 470 508 488 511 506 513 524 514 543 513 561 511 579 508 596 504 613 498 628 491 643 483 657 475 669 465 680 454 690 443 698 431 704 419 708 406 711 393 712 380" fill="none" stroke-width="5.75" class="s-base"/><path d="M629 380L623 381 614 385 594 396 571 413 545 436 516 465 485 499 450 540 409 589 364 646 310 716 197 870 62 1059 -63 1240 40 1083 141 922 225 784 291 672 341 577 360 539 376 503 388 472 397 445 402 421 404 403 403 394 402 388 399 382 396 380 399 377 402 372 403 364 404 354 401 332 393 304 382 272 366 236 346 193 322 147 291 88 254 24 163 -126 54 -300 -63 -480 62 -299 197 -110 310 44 364 114 409 171 450 220 485 261 516 295 545 324 571 347 594 364 614 375 623 379 629 380" fill="none" stroke-width="6.5" stroke-linejoin="round" class="s-derived"/><path d="" fill="none" stroke-width="5.75" stroke-dasharray="6 4" class="s-derived"/><circle cx="598" cy="380" r="5" class="f-derived"/><circle cx="598" cy="380" r="10" fill="none" opacity="0.35" class="s-derived"/></svg>
