<svg viewBox="0 0 1000 760" aria-hidden="true" focusable="false"><rect width="1000" height="760" class="f-bg"/><line x1="890" y1="380" x2="597" y2="380" stroke-width="2.5" opacity="0.4" class="s-line"/><line x1="872" y1="290" x2="597" y2="357" stroke-width="2.5" opacity="0.4" class="s-line"/><line x1="823" y1="217" x2="594" y2="333" stroke-width="2.5" opacity="0.4" class="s-line"/><line x1="765" y1="175" x2="590" y2="311" stroke-width="2.5" opacity="0.4" class="s-line"/><line x1="710" y1="154" x2="584" y2="290" stroke-width="2.5" opacity="0.4" class="s-line"/><line x1="663" y1="147" x2="577" y2="270" stroke-width="2.5" opacity="0.4" class="s-line"/><line x1="623" y1="147" x2="568" y2="252" stroke-width="2.5" opacity="0.4" class="s-line"/><line x1="592" y1="151" x2="558" y2="237" stroke-width="2.5" opacity="0.4" class="s-line"/><line x1="568" y1="156" x2="547" y2="225" stroke-width="2.5" opacity="0.4" class="s-line"/><line x1="547" y1="160" x2="535" y2="215" stroke-width="2.5" opacity="0.4" class="s-line"/><line x1="528" y1="163" x2="522" y2="207" stroke-width="2.5" opacity="0.4" class="s-line"/><line x1="512" y1="165" x2="510" y2="204" stroke-width="2.5" opacity="0.4" class="s-line"/><line x1="496" y1="165" x2="497" y2="203" stroke-width="2.5" opacity="0.4" class="s-line"/><line x1="480" y1="164" x2="484" y2="205" stroke-width="2.5" opacity="0.4" class="s-line"/><line x1="462" y1="162" x2="471" y2="211" stroke-width="2.5" opacity="0.4" class="s-line"/><line x1="443" y1="158" x2="459" y2="219" stroke-width="2.5" opacity="0.4" class="s-line"/><line x1="421" y1="153" x2="448" y2="231" stroke-width="2.5" opacity="0.4" class="s-line"/><line x1="393" y1="149" x2="437" y2="244" stroke-width="2.5" opacity="0.4" class="s-line"/><line x1="357" y1="147" x2="428" y2="261" stroke-width="2.5" opacity="0.4" class="s-line"/><line x1="315" y1="149" x2="420" y2="280" stroke-width="2.5" opacity="0.4" class="s-line"/><line x1="263" y1="162" x2="413" y2="300" stroke-width="2.5" opacity="0.4" class="s-line"/><line x1="206" y1="193" x2="408" y2="321" stroke-width="2.5" opacity="0.4" class="s-line"/><line x1="149" y1="252" x2="404" y2="345" stroke-width="2.5" opacity="0.4" class="s-line"/><line x1="115" y1="334" x2="403" y2="368" stroke-width="2.5" opacity="0.4" class="s-line"/><line x1="115" y1="426" x2="403" y2="392" stroke-width="2.5" opacity="0.4" class="s-line"/><line x1="149" y1="508" x2="404" y2="415" stroke-width="2.5" opacity="0.4" class="s-line"/><line x1="206" y1="567" x2="408" y2="439" stroke-width="2.5" opacity="0.4" class="s-line"/><line x1="263" y1="598" x2="413" y2="460" stroke-width="2.5" opacity="0.4" class="s-line"/><line x1="315" y1="611" x2="420" y2="480" stroke-width="2.5" opacity="0.4" class="s-line"/><line x1="357" y1="613" x2="428" y2="499" stroke-width="2.5" opacity="0.4" class="s-line"/><line x1="393" y1="611" x2="437" y2="516" stroke-width="2.5" opacity="0.4" class="s-line"/><line x1="421" y1="607" x2="448" y2="529" stroke-width="2.5" opacity="0.4" class="s-line"/><line x1="443" y1="602" x2="459" y2="541" stroke-width="2.5" opacity="0.4" class="s-line"/><line x1="462" y1="598" x2="471" y2="549" stroke-width="2.5" opacity="0.4" class="s-line"/><line x1="480" y1="596" x2="484" y2="555" stroke-width="2.5" opacity="0.4" class="s-line"/><line x1="496" y1="595" x2="497" y2="557" stroke-width="2.5" opacity="0.4" class="s-line"/><line x1="512" y1="595" x2="510" y2="556" stroke-width="2.5" opacity="0.4" class="s-line"/><line x1="528" y1="597" x2="522" y2="553" stroke-width="2.5" opacity="0.4" class="s-line"/><line x1="547" y1="600" x2="535" y2="545" stroke-width="2.5" opacity="0.4" class="s-line"/><line x1="568" y1="604" x2="547" y2="535" stroke-width="2.5" opacity="0.4" class="s-line"/><line x1="592" y1="609" x2="558" y2="523" stroke-width="2.5" opacity="0.4" class="s-line"/><line x1="623" y1="613" x2="568" y2="508" stroke-width="2.5" opacity="0.4" class="s-line"/><line x1="663" y1="613" x2="577" y2="490" stroke-width="2.5" opacity="0.4" class="s-line"/><line x1="710" y1="606" x2="584" y2="470" stroke-width="2.5" opacity="0.4" class="s-line"/><line x1="765" y1="585" x2="590" y2="449" stroke-width="2.5" opacity="0.4" class="s-line"/><line x1="823" y1="543" x2="594" y2="427" stroke-width="2.5" opacity="0.4" class="s-line"/><line x1="872" y1="470" x2="597" y2="403" stroke-width="2.5" opacity="0.4" class="s-line"/><line x1="890" y1="380" x2="597" y2="380" stroke-width="2.5" opacity="0.4" class="s-line"/><circle cx="500" cy="380" r="195" fill="none" stroke-width="3.5" stroke-dasharray="7 5" opacity="0.85" class="s-line"/><path d="M890 380L889 358 886 336 880 315 872 290 863 271 850 250 836 231 820 215 801 198 782 184 762 173 741 164 717 156 696 151 671 148 647 147 628 147 606 149 530 163 501 165 471 163 415 152 389 149 363 147 338 147 315 149 294 153 274 159 253 166 222 182 209 191 195 201 171 224 158 239 149 252 133 281 126 296 120 312 116 329 112 347 110 378 111 400 114 422 119 443 127 468 136 487 149 508 163 527 179 544 198 561 217 575 236 586 258 596 281 604 303 609 328 612 352 613 373 613 395 611 470 597 500 595 529 597 585 608 611 611 636 613 661 613 684 611 705 607 728 601 749 593 765 585 779 577 793 568 807 557 831 534 843 519 852 506 868 478 875 462 880 445 885 428 888 411 890 380" fill="none" stroke-width="3.75" stroke-linejoin="round" opacity="0.5" class="s-derived"/><path d="M890 380L888 360 883 338 873 318 861 298 845 280 825 262 803 245 777 229 750 215 719 202 685 191 650 182 613 175 577 170 539 167 502 166 465 166 426 169 388 175 353 181 318 190 284 201 253 214 225 228 200 243 177 260 157 278 140 298 127 317 118 338 112 358 110 379 112 401 117 421 126 441 139 461 155 480 176 499 197 515 224 531 253 546 282 558 314 568 349 578 386 585 424 590 463 594 499 595 539 593 575 591 611 586 648 579 681 570 715 559 746 546 776 532 800 517 824 500 843 482 860 463 873 442 883 422 888 400 890 380" fill="none" stroke-width="5.75" class="s-base"/><path d="M597 380L597 358 594 336 591 315 585 295 578 275 571 258 562 243 552 230 541 219 529 211 518 206 505 203 493 203 481 206 469 212 458 220 447 232 436 246 427 263 419 282 412 302 408 324 404 346 403 371 403 395 405 418 408 441 414 462 420 482 428 500 438 516 448 530 459 541 471 550 484 555 497 557 510 556 523 552 535 545 547 535 558 522 568 506 577 489 584 469 590 448 594 426 597 403 597 380" fill="none" stroke-width="6.5" stroke-linejoin="round" class="s-derived"/><circle cx="500" cy="380" r="4" class="f-line"/><circle cx="500" cy="380" r="5" class="f-derived"/><circle cx="500" cy="380" r="10" fill="none" opacity="0.35" class="s-derived"/></svg>
