<svg viewBox="0 0 1000 760" aria-hidden="true" focusable="false"><rect width="1000" height="760" class="f-bg"/><rect x="129" y="84" width="741" height="593" fill="none" stroke-width="2.5" stroke-dasharray="4 5" opacity="0.5" class="s-line"/><path d="M468 523L473 528M468 528L473 523" stroke-width="2.5" opacity="0.6" class="s-line"/><path d="M472 523L477 528M472 528L477 523" stroke-width="2.5" opacity="0.6" class="s-line"/><path d="M475 524L480 529M475 529L480 524" stroke-width="2.5" opacity="0.6" class="s-line"/><path d="M479 525L484 530M479 530L484 525" stroke-width="2.5" opacity="0.6" class="s-line"/><path d="M483 525L488 530M483 530L488 525" stroke-width="2.5" opacity="0.6" class="s-line"/><path d="M486 525L491 530M486 530L491 525" stroke-width="2.5" opacity="0.6" class="s-line"/><path d="M490 526L495 531M490 531L495 526" stroke-width="2.5" opacity="0.6" class="s-line"/><path d="M494 526L499 531M494 531L499 526" stroke-width="2.5" opacity="0.6" class="s-line"/><path d="M501 526L506 531M501 531L506 526" stroke-width="2.5" opacity="0.6" class="s-line"/><path d="M505 526L510 531M505 531L510 526" stroke-width="2.5" opacity="0.6" class="s-line"/><path d="M509 525L514 530M509 530L514 525" stroke-width="2.5" opacity="0.6" class="s-line"/><path d="M512 525L517 530M512 530L517 525" stroke-width="2.5" opacity="0.6" class="s-line"/><path d="M516 525L521 530M516 530L521 525" stroke-width="2.5" opacity="0.6" class="s-line"/><path d="M520 524L525 529M520 529L525 524" stroke-width="2.5" opacity="0.6" class="s-line"/><path d="M523 523L528 528M523 528L528 523" stroke-width="2.5" opacity="0.6" class="s-line"/><path d="M527 523L532 528M527 528L532 523" stroke-width="2.5" opacity="0.6" class="s-line"/><path d="M453 519L458 524M453 524L458 519" stroke-width="2.5" opacity="0.6" class="s-line"/><path d="M457 520L462 525M457 525L462 520" stroke-width="2.5" opacity="0.6" class="s-line"/><path d="M460 521L465 526M460 526L465 521" stroke-width="2.5" opacity="0.6" class="s-line"/><path d="M465 522L470 527M465 527L470 522" stroke-width="2.5" opacity="0.6" class="s-line"/><path d="M464 522L469 527M464 527L469 522" stroke-width="2.5" opacity="0.6" class="s-line"/><path d="M530 522L535 527M530 527L535 522" stroke-width="2.5" opacity="0.6" class="s-line"/><path d="M531 522L536 527M531 527L536 522" stroke-width="2.5" opacity="0.6" class="s-line"/><path d="M535 521L540 526M535 526L540 521" stroke-width="2.5" opacity="0.6" class="s-line"/><path d="M538 520L543 525M538 525L543 520" stroke-width="2.5" opacity="0.6" class="s-line"/><path d="M542 519L547 524M542 524L547 519" stroke-width="2.5" opacity="0.6" class="s-line"/><path d="M442 515L447 520M442 520L447 515" stroke-width="2.5" opacity="0.6" class="s-line"/><path d="M446 516L451 521M446 521L451 516" stroke-width="2.5" opacity="0.6" class="s-line"/><path d="M451 518L456 523M451 523L456 518" stroke-width="2.5" opacity="0.6" class="s-line"/><path d="M449 518L454 523M449 523L454 518" stroke-width="2.5" opacity="0.6" class="s-line"/><path d="M544 518L549 523M544 523L549 518" stroke-width="2.5" opacity="0.6" class="s-line"/><path d="M546 518L551 523M546 523L551 518" stroke-width="2.5" opacity="0.6" class="s-line"/><path d="M549 516L554 521M549 521L554 516" stroke-width="2.5" opacity="0.6" class="s-line"/><path d="M553 515L558 520M553 520L558 515" stroke-width="2.5" opacity="0.6" class="s-line"/><path d="M435 512L440 517M435 517L440 512" stroke-width="2.5" opacity="0.6" class="s-line"/><path d="M441 515L446 520M441 520L446 515" stroke-width="2.5" opacity="0.6" class="s-line"/><path d="M438 513L443 518M438 518L443 513" stroke-width="2.5" opacity="0.6" class="s-line"/><path d="M554 515L559 520M554 520L559 515" stroke-width="2.5" opacity="0.6" class="s-line"/><path d="M557 513L562 518M557 518L562 513" stroke-width="2.5" opacity="0.6" class="s-line"/><path d="M560 512L565 517M560 517L565 512" stroke-width="2.5" opacity="0.6" class="s-line"/><path d="M427 508L432 513M427 513L432 508" stroke-width="2.5" opacity="0.6" class="s-line"/><path d="M433 511L438 516M433 516L438 511" stroke-width="2.5" opacity="0.6" class="s-line"/><path d="M431 510L436 515M431 515L436 510" stroke-width="2.5" opacity="0.6" class="s-line"/><path d="M562 511L567 516M562 516L567 511" stroke-width="2.5" opacity="0.6" class="s-line"/><path d="M564 510L569 515M564 515L569 510" stroke-width="2.5" opacity="0.6" class="s-line"/><path d="M568 508L573 513M568 513L573 508" stroke-width="2.5" opacity="0.6" class="s-line"/><path d="M420 504L425 509M420 509L425 504" stroke-width="2.5" opacity="0.6" class="s-line"/><path d="M426 507L431 512M426 512L431 507" stroke-width="2.5" opacity="0.6" class="s-line"/><path d="M423 506L428 511M423 511L428 506" stroke-width="2.5" opacity="0.6" class="s-line"/><path d="M569 507L574 512M569 512L574 507" stroke-width="2.5" opacity="0.6" class="s-line"/><path d="M572 506L577 511M572 511L577 506" stroke-width="2.5" opacity="0.6" class="s-line"/><path d="M575 504L580 509M575 509L580 504" stroke-width="2.5" opacity="0.6" class="s-line"/><path d="M419 503L424 508M419 508L424 503" stroke-width="2.5" opacity="0.6" class="s-line"/><path d="M416 501L421 506M416 506L421 501" stroke-width="2.5" opacity="0.6" class="s-line"/><path d="M576 503L581 508M576 508L581 503" stroke-width="2.5" opacity="0.6" class="s-line"/><path d="M579 501L584 506M579 506L584 501" stroke-width="2.5" opacity="0.6" class="s-line"/><path d="M414 500L419 505M414 505L419 500" stroke-width="2.5" opacity="0.6" class="s-line"/><path d="M412 499L417 504M412 504L417 499" stroke-width="2.5" opacity="0.6" class="s-line"/><path d="M581 500L586 505M581 505L586 500" stroke-width="2.5" opacity="0.6" class="s-line"/><path d="M583 499L588 504M583 504L588 499" stroke-width="2.5" opacity="0.6" class="s-line"/><path d="M405 493L410 498M405 498L410 493" stroke-width="2.5" opacity="0.6" class="s-line"/><path d="M409 496L414 501M409 501L414 496" stroke-width="2.5" opacity="0.6" class="s-line"/><path d="M409 496L414 501M409 501L414 496" stroke-width="2.5" opacity="0.6" class="s-line"/><path d="M586 496L591 501M586 501L591 496" stroke-width="2.5" opacity="0.6" class="s-line"/><path d="M586 496L591 501M586 501L591 496" stroke-width="2.5" opacity="0.6" class="s-line"/><path d="M590 493L595 498M590 498L595 493" stroke-width="2.5" opacity="0.6" class="s-line"/><path d="M404 492L409 497M404 497L409 492" stroke-width="2.5" opacity="0.6" class="s-line"/><path d="M401 490L406 495M401 495L406 490" stroke-width="2.5" opacity="0.6" class="s-line"/><path d="M591 492L596 497M591 497L596 492" stroke-width="2.5" opacity="0.6" class="s-line"/><path d="M594 490L599 495M594 495L599 490" stroke-width="2.5" opacity="0.6" class="s-line"/><path d="M399 489L404 494M399 494L404 489" stroke-width="2.5" opacity="0.6" class="s-line"/><path d="M397 487L402 492M397 492L402 487" stroke-width="2.5" opacity="0.6" class="s-line"/><path d="M596 489L601 494M596 494L601 489" stroke-width="2.5" opacity="0.6" class="s-line"/><path d="M598 487L603 492M598 492L603 487" stroke-width="2.5" opacity="0.6" class="s-line"/><path d="M395 485L400 490M395 490L400 485" stroke-width="2.5" opacity="0.6" class="s-line"/><path d="M394 483L399 488M394 488L399 483" stroke-width="2.5" opacity="0.6" class="s-line"/><path d="M600 485L605 490M600 490L605 485" stroke-width="2.5" opacity="0.6" class="s-line"/><path d="M601 483L606 488M601 488L606 483" stroke-width="2.5" opacity="0.6" class="s-line"/><path d="M392 481L397 486M392 486L397 481" stroke-width="2.5" opacity="0.6" class="s-line"/><path d="M390 480L395 485M390 485L395 480" stroke-width="2.5" opacity="0.6" class="s-line"/><path d="M603 481L608 486M603 486L608 481" stroke-width="2.5" opacity="0.6" class="s-line"/><path d="M605 480L610 485M605 485L610 480" stroke-width="2.5" opacity="0.6" class="s-line"/><path d="M388 478L393 483M388 483L393 478" stroke-width="2.5" opacity="0.6" class="s-line"/><path d="M386 476L391 481M386 481L391 476" stroke-width="2.5" opacity="0.6" class="s-line"/><path d="M607 478L612 483M607 483L612 478" stroke-width="2.5" opacity="0.6" class="s-line"/><path d="M609 476L614 481M609 481L614 476" stroke-width="2.5" opacity="0.6" class="s-line"/><path d="M385 474L390 479M385 479L390 474" stroke-width="2.5" opacity="0.6" class="s-line"/><path d="M383 471L388 476M383 476L388 471" stroke-width="2.5" opacity="0.6" class="s-line"/><path d="M610 474L615 479M610 479L615 474" stroke-width="2.5" opacity="0.6" class="s-line"/><path d="M612 471L617 476M612 476L617 471" stroke-width="2.5" opacity="0.6" class="s-line"/><path d="M382 470L387 475M382 475L387 470" stroke-width="2.5" opacity="0.6" class="s-line"/><path d="M613 470L618 475M613 475L618 470" stroke-width="2.5" opacity="0.6" class="s-line"/><path d="M616 466L621 471M616 471L621 466" stroke-width="2.5" opacity="0.6" class="s-line"/><path d="M379 466L384 471M379 471L384 466" stroke-width="2.5" opacity="0.6" class="s-line"/><path d="M379 466L384 471M379 471L384 466" stroke-width="2.5" opacity="0.6" class="s-line"/><path d="M616 466L621 471M616 471L621 466" stroke-width="2.5" opacity="0.6" class="s-line"/><path d="M376 463L381 468M376 468L381 463" stroke-width="2.5" opacity="0.6" class="s-line"/><path d="M375 461L380 466M375 466L380 461" stroke-width="2.5" opacity="0.6" class="s-line"/><path d="M619 463L624 468M619 468L624 463" stroke-width="2.5" opacity="0.6" class="s-line"/><path d="M620 461L625 466M620 466L625 461" stroke-width="2.5" opacity="0.6" class="s-line"/><path d="M374 459L379 464M374 464L379 459" stroke-width="2.5" opacity="0.6" class="s-line"/><path d="M372 456L377 461M372 461L377 456" stroke-width="2.5" opacity="0.6" class="s-line"/><path d="M621 459L626 464M621 464L626 459" stroke-width="2.5" opacity="0.6" class="s-line"/><path d="M623 456L628 461M623 461L628 456" stroke-width="2.5" opacity="0.6" class="s-line"/><path d="M371 455L376 460M371 460L376 455" stroke-width="2.5" opacity="0.6" class="s-line"/><path d="M624 455L629 460M624 460L629 455" stroke-width="2.5" opacity="0.6" class="s-line"/><path d="M369 452L374 457M369 457L374 452" stroke-width="2.5" opacity="0.6" class="s-line"/><path d="M368 449L373 454M368 454L373 449" stroke-width="2.5" opacity="0.6" class="s-line"/><path d="M626 452L631 457M626 457L631 452" stroke-width="2.5" opacity="0.6" class="s-line"/><path d="M627 449L632 454M627 454L632 449" stroke-width="2.5" opacity="0.6" class="s-line"/><path d="M367 448L372 453M367 453L372 448" stroke-width="2.5" opacity="0.6" class="s-line"/><path d="M628 448L633 453M628 453L633 448" stroke-width="2.5" opacity="0.6" class="s-line"/><path d="M365 444L370 449M365 449L370 444" stroke-width="2.5" opacity="0.6" class="s-line"/><path d="M364 442L369 447M364 447L369 442" stroke-width="2.5" opacity="0.6" class="s-line"/><path d="M630 444L635 449M630 449L635 444" stroke-width="2.5" opacity="0.6" class="s-line"/><path d="M631 442L636 447M631 447L636 442" stroke-width="2.5" opacity="0.6" class="s-line"/><path d="M363 440L368 445M363 445L368 440" stroke-width="2.5" opacity="0.6" class="s-line"/><path d="M632 440L637 445M632 445L637 440" stroke-width="2.5" opacity="0.6" class="s-line"/><path d="M362 437L367 442M362 442L367 437" stroke-width="2.5" opacity="0.6" class="s-line"/><path d="M360 434L365 439M360 439L365 434" stroke-width="2.5" opacity="0.6" class="s-line"/><path d="M633 437L638 442M633 442L638 437" stroke-width="2.5" opacity="0.6" class="s-line"/><path d="M635 434L640 439M635 439L640 434" stroke-width="2.5" opacity="0.6" class="s-line"/><path d="M360 433L365 438M360 438L365 433" stroke-width="2.5" opacity="0.6" class="s-line"/><path d="M635 433L640 438M635 438L640 433" stroke-width="2.5" opacity="0.6" class="s-line"/><path d="M359 429L364 434M359 434L364 429" stroke-width="2.5" opacity="0.6" class="s-line"/><path d="M636 429L641 434M636 434L641 429" stroke-width="2.5" opacity="0.6" class="s-line"/><path d="M357 426L362 431M357 431L362 426" stroke-width="2.5" opacity="0.6" class="s-line"/><path d="M357 424L362 429M357 429L362 424" stroke-width="2.5" opacity="0.6" class="s-line"/><path d="M638 426L643 431M638 431L643 426" stroke-width="2.5" opacity="0.6" class="s-line"/><path d="M638 424L643 429M638 429L643 424" stroke-width="2.5" opacity="0.6" class="s-line"/><path d="M356 422L361 427M356 427L361 422" stroke-width="2.5" opacity="0.6" class="s-line"/><path d="M639 422L644 427M639 427L644 422" stroke-width="2.5" opacity="0.6" class="s-line"/><path d="M355 418L360 423M355 423L360 418" stroke-width="2.5" opacity="0.6" class="s-line"/><path d="M640 418L645 423M640 423L645 418" stroke-width="2.5" opacity="0.6" class="s-line"/><path d="M354 415L359 420M354 420L359 415" stroke-width="2.5" opacity="0.6" class="s-line"/><path d="M641 415L646 420M641 420L646 415" stroke-width="2.5" opacity="0.6" class="s-line"/><path d="M353 411L358 416M353 416L358 411" stroke-width="2.5" opacity="0.6" class="s-line"/><path d="M353 410L358 415M353 415L358 410" stroke-width="2.5" opacity="0.6" class="s-line"/><path d="M642 411L647 416M642 416L647 411" stroke-width="2.5" opacity="0.6" class="s-line"/><path d="M642 410L647 415M642 415L647 410" stroke-width="2.5" opacity="0.6" class="s-line"/><path d="M352 407L357 412M352 412L357 407" stroke-width="2.5" opacity="0.6" class="s-line"/><path d="M643 407L648 412M643 412L648 407" stroke-width="2.5" opacity="0.6" class="s-line"/><path d="M352 403L357 408M352 408L357 403" stroke-width="2.5" opacity="0.6" class="s-line"/><path d="M643 403L648 408M643 408L648 403" stroke-width="2.5" opacity="0.6" class="s-line"/><path d="M351 400L356 405M351 405L356 400" stroke-width="2.5" opacity="0.6" class="s-line"/><path d="M644 400L649 405M644 405L649 400" stroke-width="2.5" opacity="0.6" class="s-line"/><path d="M350 396L355 401M350 401L355 396" stroke-width="2.5" opacity="0.6" class="s-line"/><path d="M645 396L650 401M645 401L650 396" stroke-width="2.5" opacity="0.6" class="s-line"/><path d="M350 392L355 397M350 397L355 392" stroke-width="2.5" opacity="0.6" class="s-line"/><path d="M645 392L650 397M645 397L650 392" stroke-width="2.5" opacity="0.6" class="s-line"/><path d="M350 389L355 394M350 394L355 389" stroke-width="2.5" opacity="0.6" class="s-line"/><path d="M645 389L650 394M645 394L650 389" stroke-width="2.5" opacity="0.6" class="s-line"/><path d="M349 385L354 390M349 390L354 385" stroke-width="2.5" opacity="0.6" class="s-line"/><path d="M646 385L651 390M646 390L651 385" stroke-width="2.5" opacity="0.6" class="s-line"/><path d="M349 381L354 386M349 386L354 381" stroke-width="2.5" opacity="0.6" class="s-line"/><path d="M646 381L651 386M646 386L651 381" stroke-width="2.5" opacity="0.6" class="s-line"/><path d="M349 374L354 379M349 379L354 374" stroke-width="2.5" opacity="0.6" class="s-line"/><path d="M646 374L651 379M646 379L651 374" stroke-width="2.5" opacity="0.6" class="s-line"/><path d="M349 370L354 375M349 375L354 370" stroke-width="2.5" opacity="0.6" class="s-line"/><path d="M646 370L651 375M646 375L651 370" stroke-width="2.5" opacity="0.6" class="s-line"/><path d="M350 366L355 371M350 371L355 366" stroke-width="2.5" opacity="0.6" class="s-line"/><path d="M645 366L650 371M645 371L650 366" stroke-width="2.5" opacity="0.6" class="s-line"/><path d="M350 363L355 368M350 368L355 363" stroke-width="2.5" opacity="0.6" class="s-line"/><path d="M645 363L650 368M645 368L650 363" stroke-width="2.5" opacity="0.6" class="s-line"/><path d="M350 359L355 364M350 364L355 359" stroke-width="2.5" opacity="0.6" class="s-line"/><path d="M645 359L650 364M645 364L650 359" stroke-width="2.5" opacity="0.6" class="s-line"/><path d="M351 355L356 360M351 360L356 355" stroke-width="2.5" opacity="0.6" class="s-line"/><path d="M644 355L649 360M644 360L649 355" stroke-width="2.5" opacity="0.6" class="s-line"/><path d="M352 352L357 357M352 357L357 352" stroke-width="2.5" opacity="0.6" class="s-line"/><path d="M643 352L648 357M643 357L648 352" stroke-width="2.5" opacity="0.6" class="s-line"/><path d="M352 348L357 353M352 353L357 348" stroke-width="2.5" opacity="0.6" class="s-line"/><path d="M353 345L358 350M353 350L358 345" stroke-width="2.5" opacity="0.6" class="s-line"/><path d="M643 348L648 353M643 353L648 348" stroke-width="2.5" opacity="0.6" class="s-line"/><path d="M642 345L647 350M642 350L647 345" stroke-width="2.5" opacity="0.6" class="s-line"/><path d="M353 344L358 349M353 349L358 344" stroke-width="2.5" opacity="0.6" class="s-line"/><path d="M642 344L647 349M642 349L647 344" stroke-width="2.5" opacity="0.6" class="s-line"/><path d="M354 340L359 345M354 345L359 340" stroke-width="2.5" opacity="0.6" class="s-line"/><path d="M641 340L646 345M641 345L646 340" stroke-width="2.5" opacity="0.6" class="s-line"/><path d="M355 337L360 342M355 342L360 337" stroke-width="2.5" opacity="0.6" class="s-line"/><path d="M640 337L645 342M640 342L645 337" stroke-width="2.5" opacity="0.6" class="s-line"/><path d="M356 333L361 338M356 338L361 333" stroke-width="2.5" opacity="0.6" class="s-line"/><path d="M357 331L362 336M357 336L362 331" stroke-width="2.5" opacity="0.6" class="s-line"/><path d="M639 333L644 338M639 338L644 333" stroke-width="2.5" opacity="0.6" class="s-line"/><path d="M638 331L643 336M638 336L643 331" stroke-width="2.5" opacity="0.6" class="s-line"/><path d="M357 329L362 334M357 334L362 329" stroke-width="2.5" opacity="0.6" class="s-line"/><path d="M638 329L643 334M638 334L643 329" stroke-width="2.5" opacity="0.6" class="s-line"/><path d="M359 326L364 331M359 331L364 326" stroke-width="2.5" opacity="0.6" class="s-line"/><path d="M636 326L641 331M636 331L641 326" stroke-width="2.5" opacity="0.6" class="s-line"/><path d="M360 322L365 327M360 327L365 322" stroke-width="2.5" opacity="0.6" class="s-line"/><path d="M360 321L365 326M360 326L365 321" stroke-width="2.5" opacity="0.6" class="s-line"/><path d="M635 322L640 327M635 327L640 322" stroke-width="2.5" opacity="0.6" class="s-line"/><path d="M635 321L640 326M635 326L640 321" stroke-width="2.5" opacity="0.6" class="s-line"/><path d="M362 318L367 323M362 323L367 318" stroke-width="2.5" opacity="0.6" class="s-line"/><path d="M633 318L638 323M633 323L638 318" stroke-width="2.5" opacity="0.6" class="s-line"/><path d="M363 315L368 320M363 320L368 315" stroke-width="2.5" opacity="0.6" class="s-line"/><path d="M364 313L369 318M364 318L369 313" stroke-width="2.5" opacity="0.6" class="s-line"/><path d="M632 315L637 320M632 320L637 315" stroke-width="2.5" opacity="0.6" class="s-line"/><path d="M631 313L636 318M631 318L636 313" stroke-width="2.5" opacity="0.6" class="s-line"/><path d="M365 311L370 316M365 316L370 311" stroke-width="2.5" opacity="0.6" class="s-line"/><path d="M630 311L635 316M630 316L635 311" stroke-width="2.5" opacity="0.6" class="s-line"/><path d="M367 307L372 312M367 312L372 307" stroke-width="2.5" opacity="0.6" class="s-line"/><path d="M368 306L373 311M368 311L373 306" stroke-width="2.5" opacity="0.6" class="s-line"/><path d="M628 307L633 312M628 312L633 307" stroke-width="2.5" opacity="0.6" class="s-line"/><path d="M627 306L632 311M627 311L632 306" stroke-width="2.5" opacity="0.6" class="s-line"/><path d="M369 303L374 308M369 308L374 303" stroke-width="2.5" opacity="0.6" class="s-line"/><path d="M626 303L631 308M626 308L631 303" stroke-width="2.5" opacity="0.6" class="s-line"/><path d="M371 300L376 305M371 305L376 300" stroke-width="2.5" opacity="0.6" class="s-line"/><path d="M372 299L377 304M372 304L377 299" stroke-width="2.5" opacity="0.6" class="s-line"/><path d="M624 300L629 305M624 305L629 300" stroke-width="2.5" opacity="0.6" class="s-line"/><path d="M623 299L628 304M623 304L628 299" stroke-width="2.5" opacity="0.6" class="s-line"/><path d="M374 296L379 301M374 301L379 296" stroke-width="2.5" opacity="0.6" class="s-line"/><path d="M375 294L380 299M375 299L380 294" stroke-width="2.5" opacity="0.6" class="s-line"/><path d="M621 296L626 301M621 301L626 296" stroke-width="2.5" opacity="0.6" class="s-line"/><path d="M620 294L625 299M620 299L625 294" stroke-width="2.5" opacity="0.6" class="s-line"/><path d="M376 292L381 297M376 297L381 292" stroke-width="2.5" opacity="0.6" class="s-line"/><path d="M379 289L384 294M379 294L384 289" stroke-width="2.5" opacity="0.6" class="s-line"/><path d="M619 292L624 297M619 297L624 292" stroke-width="2.5" opacity="0.6" class="s-line"/><path d="M379 289L384 294M379 294L384 289" stroke-width="2.5" opacity="0.6" class="s-line"/><path d="M616 289L621 294M616 294L621 289" stroke-width="2.5" opacity="0.6" class="s-line"/><path d="M616 289L621 294M616 294L621 289" stroke-width="2.5" opacity="0.6" class="s-line"/><path d="M382 285L387 290M382 290L387 285" stroke-width="2.5" opacity="0.6" class="s-line"/><path d="M383 284L388 289M383 289L388 284" stroke-width="2.5" opacity="0.6" class="s-line"/><path d="M613 285L618 290M613 290L618 285" stroke-width="2.5" opacity="0.6" class="s-line"/><path d="M612 284L617 289M612 289L617 284" stroke-width="2.5" opacity="0.6" class="s-line"/><path d="M385 281L390 286M385 286L390 281" stroke-width="2.5" opacity="0.6" class="s-line"/><path d="M386 279L391 284M386 284L391 279" stroke-width="2.5" opacity="0.6" class="s-line"/><path d="M610 281L615 286M610 286L615 281" stroke-width="2.5" opacity="0.6" class="s-line"/><path d="M609 279L614 284M609 284L614 279" stroke-width="2.5" opacity="0.6" class="s-line"/><path d="M388 277L393 282M388 282L393 277" stroke-width="2.5" opacity="0.6" class="s-line"/><path d="M390 275L395 280M390 280L395 275" stroke-width="2.5" opacity="0.6" class="s-line"/><path d="M607 277L612 282M607 282L612 277" stroke-width="2.5" opacity="0.6" class="s-line"/><path d="M605 275L610 280M605 280L610 275" stroke-width="2.5" opacity="0.6" class="s-line"/><path d="M392 274L397 279M392 279L397 274" stroke-width="2.5" opacity="0.6" class="s-line"/><path d="M394 272L399 277M394 277L399 272" stroke-width="2.5" opacity="0.6" class="s-line"/><path d="M603 274L608 279M603 279L608 274" stroke-width="2.5" opacity="0.6" class="s-line"/><path d="M601 272L606 277M601 277L606 272" stroke-width="2.5" opacity="0.6" class="s-line"/><path d="M395 270L400 275M395 275L400 270" stroke-width="2.5" opacity="0.6" class="s-line"/><path d="M397 268L402 273M397 273L402 268" stroke-width="2.5" opacity="0.6" class="s-line"/><path d="M600 270L605 275M600 275L605 270" stroke-width="2.5" opacity="0.6" class="s-line"/><path d="M598 268L603 273M598 273L603 268" stroke-width="2.5" opacity="0.6" class="s-line"/><path d="M399 266L404 271M399 271L404 266" stroke-width="2.5" opacity="0.6" class="s-line"/><path d="M401 265L406 270M401 270L406 265" stroke-width="2.5" opacity="0.6" class="s-line"/><path d="M596 266L601 271M596 271L601 266" stroke-width="2.5" opacity="0.6" class="s-line"/><path d="M594 265L599 270M594 270L599 265" stroke-width="2.5" opacity="0.6" class="s-line"/><path d="M404 263L409 268M404 268L409 263" stroke-width="2.5" opacity="0.6" class="s-line"/><path d="M405 262L410 267M405 267L410 262" stroke-width="2.5" opacity="0.6" class="s-line"/><path d="M591 263L596 268M591 268L596 263" stroke-width="2.5" opacity="0.6" class="s-line"/><path d="M590 262L595 267M590 267L595 262" stroke-width="2.5" opacity="0.6" class="s-line"/><path d="M409 259L414 264M409 264L414 259" stroke-width="2.5" opacity="0.6" class="s-line"/><path d="M409 259L414 264M409 264L414 259" stroke-width="2.5" opacity="0.6" class="s-line"/><path d="M412 256L417 261M412 261L417 256" stroke-width="2.5" opacity="0.6" class="s-line"/><path d="M583 256L588 261M583 261L588 256" stroke-width="2.5" opacity="0.6" class="s-line"/><path d="M586 259L591 264M586 264L591 259" stroke-width="2.5" opacity="0.6" class="s-line"/><path d="M586 259L591 264M586 264L591 259" stroke-width="2.5" opacity="0.6" class="s-line"/><path d="M414 255L419 260M414 260L419 255" stroke-width="2.5" opacity="0.6" class="s-line"/><path d="M416 254L421 259M416 259L421 254" stroke-width="2.5" opacity="0.6" class="s-line"/><path d="M581 255L586 260M581 260L586 255" stroke-width="2.5" opacity="0.6" class="s-line"/><path d="M579 254L584 259M579 259L584 254" stroke-width="2.5" opacity="0.6" class="s-line"/><path d="M419 252L424 257M419 257L424 252" stroke-width="2.5" opacity="0.6" class="s-line"/><path d="M420 251L425 256M420 256L425 251" stroke-width="2.5" opacity="0.6" class="s-line"/><path d="M423 249L428 254M423 254L428 249" stroke-width="2.5" opacity="0.6" class="s-line"/><path d="M572 249L577 254M572 254L577 249" stroke-width="2.5" opacity="0.6" class="s-line"/><path d="M576 252L581 257M576 257L581 252" stroke-width="2.5" opacity="0.6" class="s-line"/><path d="M575 251L580 256M575 256L580 251" stroke-width="2.5" opacity="0.6" class="s-line"/><path d="M426 248L431 253M426 253L431 248" stroke-width="2.5" opacity="0.6" class="s-line"/><path d="M427 247L432 252M427 252L432 247" stroke-width="2.5" opacity="0.6" class="s-line"/><path d="M431 245L436 250M431 250L436 245" stroke-width="2.5" opacity="0.6" class="s-line"/><path d="M564 245L569 250M564 250L569 245" stroke-width="2.5" opacity="0.6" class="s-line"/><path d="M569 248L574 253M569 253L574 248" stroke-width="2.5" opacity="0.6" class="s-line"/><path d="M568 247L573 252M568 252L573 247" stroke-width="2.5" opacity="0.6" class="s-line"/><path d="M433 244L438 249M433 249L438 244" stroke-width="2.5" opacity="0.6" class="s-line"/><path d="M435 243L440 248M435 248L440 243" stroke-width="2.5" opacity="0.6" class="s-line"/><path d="M438 242L443 247M438 247L443 242" stroke-width="2.5" opacity="0.6" class="s-line"/><path d="M557 242L562 247M557 247L562 242" stroke-width="2.5" opacity="0.6" class="s-line"/><path d="M562 244L567 249M562 249L567 244" stroke-width="2.5" opacity="0.6" class="s-line"/><path d="M560 243L565 248M560 248L565 243" stroke-width="2.5" opacity="0.6" class="s-line"/><path d="M441 240L446 245M441 245L446 240" stroke-width="2.5" opacity="0.6" class="s-line"/><path d="M442 240L447 245M442 245L447 240" stroke-width="2.5" opacity="0.6" class="s-line"/><path d="M446 239L451 244M446 244L451 239" stroke-width="2.5" opacity="0.6" class="s-line"/><path d="M449 237L454 242M449 242L454 237" stroke-width="2.5" opacity="0.6" class="s-line"/><path d="M546 237L551 242M546 242L551 237" stroke-width="2.5" opacity="0.6" class="s-line"/><path d="M549 239L554 244M549 244L554 239" stroke-width="2.5" opacity="0.6" class="s-line"/><path d="M554 240L559 245M554 245L559 240" stroke-width="2.5" opacity="0.6" class="s-line"/><path d="M553 240L558 245M553 245L558 240" stroke-width="2.5" opacity="0.6" class="s-line"/><path d="M451 237L456 242M451 242L456 237" stroke-width="2.5" opacity="0.6" class="s-line"/><path d="M453 236L458 241M453 241L458 236" stroke-width="2.5" opacity="0.6" class="s-line"/><path d="M457 235L462 240M457 240L462 235" stroke-width="2.5" opacity="0.6" class="s-line"/><path d="M460 234L465 239M460 239L465 234" stroke-width="2.5" opacity="0.6" class="s-line"/><path d="M464 233L469 238M464 238L469 233" stroke-width="2.5" opacity="0.6" class="s-line"/><path d="M531 233L536 238M531 238L536 233" stroke-width="2.5" opacity="0.6" class="s-line"/><path d="M535 234L540 239M535 239L540 234" stroke-width="2.5" opacity="0.6" class="s-line"/><path d="M538 235L543 240M538 240L543 235" stroke-width="2.5" opacity="0.6" class="s-line"/><path d="M544 237L549 242M544 242L549 237" stroke-width="2.5" opacity="0.6" class="s-line"/><path d="M542 236L547 241M542 241L547 236" stroke-width="2.5" opacity="0.6" class="s-line"/><path d="M465 233L470 238M465 238L470 233" stroke-width="2.5" opacity="0.6" class="s-line"/><path d="M468 232L473 237M468 237L473 232" stroke-width="2.5" opacity="0.6" class="s-line"/><path d="M472 232L477 237M472 237L477 232" stroke-width="2.5" opacity="0.6" class="s-line"/><path d="M475 231L480 236M475 236L480 231" stroke-width="2.5" opacity="0.6" class="s-line"/><path d="M479 230L484 235M479 235L484 230" stroke-width="2.5" opacity="0.6" class="s-line"/><path d="M483 230L488 235M483 235L488 230" stroke-width="2.5" opacity="0.6" class="s-line"/><path d="M486 230L491 235M486 235L491 230" stroke-width="2.5" opacity="0.6" class="s-line"/><path d="M490 229L495 234M490 234L495 229" stroke-width="2.5" opacity="0.6" class="s-line"/><path d="M494 229L499 234M494 234L499 229" stroke-width="2.5" opacity="0.6" class="s-line"/><path d="M501 229L506 234M501 234L506 229" stroke-width="2.5" opacity="0.6" class="s-line"/><path d="M505 229L510 234M505 234L510 229" stroke-width="2.5" opacity="0.6" class="s-line"/><path d="M509 230L514 235M509 235L514 230" stroke-width="2.5" opacity="0.6" class="s-line"/><path d="M512 230L517 235M512 235L517 230" stroke-width="2.5" opacity="0.6" class="s-line"/><path d="M516 230L521 235M516 235L521 230" stroke-width="2.5" opacity="0.6" class="s-line"/><path d="M520 231L525 236M520 236L525 231" stroke-width="2.5" opacity="0.6" class="s-line"/><path d="M523 232L528 237M523 237L528 232" stroke-width="2.5" opacity="0.6" class="s-line"/><path d="M530 233L535 238M530 238L535 233" stroke-width="2.5" opacity="0.6" class="s-line"/><path d="M527 232L532 237M527 237L532 232" stroke-width="2.5" opacity="0.6" class="s-line"/><path d="M638 398L669 418M666 414L669 418 664 418" fill="none" stroke-width="3" stroke-linecap="round" stroke-linejoin="round" opacity="0.75" class="s-line"/><path d="M622 418L650 443M648 438L650 443 645 442" fill="none" stroke-width="3" stroke-linecap="round" stroke-linejoin="round" opacity="0.75" class="s-line"/><path d="M604 435L627 464M626 459L627 464 622 462" fill="none" stroke-width="3" stroke-linecap="round" stroke-linejoin="round" opacity="0.75" class="s-line"/><path d="M583 449L601 482M601 477L601 482 597 479" fill="none" stroke-width="3" stroke-linecap="round" stroke-linejoin="round" opacity="0.75" class="s-line"/><path d="M560 460L573 495M574 490L573 495 569 492" fill="none" stroke-width="3" stroke-linecap="round" stroke-linejoin="round" opacity="0.75" class="s-line"/><path d="M535 468L543 504M545 499L543 504 540 500" fill="none" stroke-width="3" stroke-linecap="round" stroke-linejoin="round" opacity="0.75" class="s-line"/><path d="M510 471L513 508M515 504L513 508 510 504" fill="none" stroke-width="3" stroke-linecap="round" stroke-linejoin="round" opacity="0.75" class="s-line"/><path d="M485 471L481 508M484 504L481 508 479 503" fill="none" stroke-width="3" stroke-linecap="round" stroke-linejoin="round" opacity="0.75" class="s-line"/><path d="M460 467L451 503M454 499L451 503 450 498" fill="none" stroke-width="3" stroke-linecap="round" stroke-linejoin="round" opacity="0.75" class="s-line"/><path d="M436 459L421 493M425 490L421 493 421 488" fill="none" stroke-width="3" stroke-linecap="round" stroke-linejoin="round" opacity="0.75" class="s-line"/><path d="M413 447L394 479M398 476L394 479 394 474" fill="none" stroke-width="3" stroke-linecap="round" stroke-linejoin="round" opacity="0.75" class="s-line"/><path d="M393 432L369 460M373 458L369 460 370 455" fill="none" stroke-width="3" stroke-linecap="round" stroke-linejoin="round" opacity="0.75" class="s-line"/><path d="M375 414L347 438M351 437L347 438 348 434" fill="none" stroke-width="3" stroke-linecap="round" stroke-linejoin="round" opacity="0.75" class="s-line"/><path d="M359 394L328 413M333 413L328 413 331 409" fill="none" stroke-width="3" stroke-linecap="round" stroke-linejoin="round" opacity="0.75" class="s-line"/><path d="M657 360L622 348M625 352L622 348 627 347" fill="none" stroke-width="3" stroke-linecap="round" stroke-linejoin="round" opacity="0.75" class="s-line"/><path d="M663 335L627 329M630 332L627 329 631 327" fill="none" stroke-width="3" stroke-linecap="round" stroke-linejoin="round" opacity="0.75" class="s-line"/><path d="M666 310L629 309M633 312L629 309 633 307" fill="none" stroke-width="3" stroke-linecap="round" stroke-linejoin="round" opacity="0.75" class="s-line"/><path d="M664 285L628 290M632 291L628 290 632 287" fill="none" stroke-width="3" stroke-linecap="round" stroke-linejoin="round" opacity="0.75" class="s-line"/><path d="M659 260L624 270M628 271L624 270 627 267" fill="none" stroke-width="3" stroke-linecap="round" stroke-linejoin="round" opacity="0.75" class="s-line"/><path d="M650 236L617 252M622 252L617 252 620 248" fill="none" stroke-width="3" stroke-linecap="round" stroke-linejoin="round" opacity="0.75" class="s-line"/><path d="M638 214L607 235M612 234L607 235 609 230" fill="none" stroke-width="3" stroke-linecap="round" stroke-linejoin="round" opacity="0.75" class="s-line"/><path d="M622 194L595 219M600 218L595 219 596 214" fill="none" stroke-width="3" stroke-linecap="round" stroke-linejoin="round" opacity="0.75" class="s-line"/><path d="M604 177L580 206M585 204L580 206 581 201" fill="none" stroke-width="3" stroke-linecap="round" stroke-linejoin="round" opacity="0.75" class="s-line"/><path d="M583 162L564 194M568 192L564 194 564 189" fill="none" stroke-width="3" stroke-linecap="round" stroke-linejoin="round" opacity="0.75" class="s-line"/><path d="M560 151L546 186M550 183L546 186 546 181" fill="none" stroke-width="3" stroke-linecap="round" stroke-linejoin="round" opacity="0.75" class="s-line"/><path d="M535 144L528 180M531 176L528 180 526 175" fill="none" stroke-width="3" stroke-linecap="round" stroke-linejoin="round" opacity="0.75" class="s-line"/><path d="M510 141L508 178M511 173L508 178 506 173" fill="none" stroke-width="3" stroke-linecap="round" stroke-linejoin="round" opacity="0.75" class="s-line"/><path d="M485 141L488 178M490 173L488 178 485 174" fill="none" stroke-width="3" stroke-linecap="round" stroke-linejoin="round" opacity="0.75" class="s-line"/><path d="M460 145L469 181M470 176L469 181 465 177" fill="none" stroke-width="3" stroke-linecap="round" stroke-linejoin="round" opacity="0.75" class="s-line"/><path d="M436 153L450 187M451 182L450 187 446 184" fill="none" stroke-width="3" stroke-linecap="round" stroke-linejoin="round" opacity="0.75" class="s-line"/><path d="M413 165L433 196M432 191L433 196 428 194" fill="none" stroke-width="3" stroke-linecap="round" stroke-linejoin="round" opacity="0.75" class="s-line"/><path d="M393 180L417 208M416 203L417 208 412 206" fill="none" stroke-width="3" stroke-linecap="round" stroke-linejoin="round" opacity="0.75" class="s-line"/><path d="M375 198L403 222M401 217L403 222 398 221" fill="none" stroke-width="3" stroke-linecap="round" stroke-linejoin="round" opacity="0.75" class="s-line"/><path d="M359 218L391 238M388 233L391 238 386 237" fill="none" stroke-width="3" stroke-linecap="round" stroke-linejoin="round" opacity="0.75" class="s-line"/><path d="M348 241L382 255M379 251L382 255 377 256" fill="none" stroke-width="3" stroke-linecap="round" stroke-linejoin="round" opacity="0.75" class="s-line"/><path d="M340 265L375 274M372 270L375 274 371 275" fill="none" stroke-width="3" stroke-linecap="round" stroke-linejoin="round" opacity="0.75" class="s-line"/><path d="M335 290L372 293M368 290L372 293 367 295" fill="none" stroke-width="3" stroke-linecap="round" stroke-linejoin="round" opacity="0.75" class="s-line"/><path d="M335 315L372 313M367 311L372 313 367 316" fill="none" stroke-width="3" stroke-linecap="round" stroke-linejoin="round" opacity="0.75" class="s-line"/><path d="M338 340L374 333M369 331L374 333 370 336" fill="none" stroke-width="3" stroke-linecap="round" stroke-linejoin="round" opacity="0.75" class="s-line"/><path d="M345 365L380 351M375 351L380 351 376 355" fill="none" stroke-width="3" stroke-linecap="round" stroke-linejoin="round" opacity="0.75" class="s-line"/><path d="M644 387L632 406 619 422 602 437 583 449 563 459 543 466 522 470 500 472 478 470 457 466 437 459 417 449 398 437 381 422 368 406 356 387" fill="none" stroke-width="5.75" stroke-linejoin="round" class="s-base"/><path d="M650 376L657 358 663 337 665 317 665 295 663 274 657 254 650 236 640 217 628 200 613 185 597 172 579 160 561 152 541 145 520 141 500 140 480 141 459 145 439 152 421 160 403 172 387 185 372 200 360 217 350 236 343 254 337 274 335 295 335 317 337 337 343 358 350 376" fill="none" stroke-width="5.75" stroke-linejoin="round" class="s-base"/><path d="" fill="none" stroke-width="5.75" class="s-base"/><path d="M649 384L652 401 653 419 652 436 649 452 644 468 637 484 629 499 619 512 609 524 595 536 582 546 567 554 551 561 533 566 517 569 500 570 483 569 467 566 449 561 433 554 418 546 405 536 391 524 381 512 371 499 363 484 356 468 351 452 348 436 347 419 348 401 351 384" fill="none" stroke-width="3.75" stroke-linejoin="round" opacity="0.8" class="s-derived"/><path d="M644 367L635 345 622 325 607 308 589 293 569 281 546 271 524 266 500 264 476 266 454 271 431 281 411 293 393 308 378 325 365 345 356 367" fill="none" stroke-width="3.75" stroke-linejoin="round" opacity="0.8" class="s-derived"/><path d="M649 384L653 400 656 419 656 437 654 456 650 473 644 490 636 506 626 522 615 536 602 548 586 560 570 569 554 576 537 581 519 585 500 586 481 585 463 581 446 576 430 569 414 560 398 548 385 536 374 522 364 506 356 490 350 473 346 456 344 437 344 419 347 400 351 384" fill="none" stroke-width="3.75" stroke-linejoin="round" opacity="0.8" class="s-derived"/><path d="M644 370L634 349 621 331 606 315 587 300 567 288 546 280 522 275 500 273 478 275 454 280 433 288 413 300 394 315 379 331 366 349 356 370" fill="none" stroke-width="3.75" stroke-linejoin="round" opacity="0.8" class="s-derived"/><path d="M650 384L657 402 663 423 665 443 665 465 663 486 657 506 650 524 640 543 628 560 613 575 597 588 579 600 561 608 541 615 520 619 500 620 480 619 459 615 439 608 421 600 403 588 387 575 372 560 360 543 350 524 343 506 337 486 335 465 335 443 337 423 343 402 350 384" fill="none" stroke-width="3.75" stroke-linejoin="round" opacity="0.8" class="s-derived"/><path d="M644 373L632 354 619 338 602 323 583 311 563 301 543 294 522 290 500 288 478 290 457 294 437 301 417 311 398 323 381 338 368 354 356 373" fill="none" stroke-width="3.75" stroke-linejoin="round" opacity="0.8" class="s-derived"/><path d="M352 676L338 662 326 645 316 628 307 610 300 591 295 571 292 550 290 530 291 510 294 489 299 469 305 450 314 432 323 415 335 399 348 384" fill="none" stroke-width="3.75" stroke-linejoin="round" opacity="0.8" class="s-derived"/><path d="M652 384L665 399 677 415 686 432 695 450 701 469 706 489 709 510 710 530 708 550 705 571 700 591 693 610 684 628 674 645 662 662 648 676" fill="none" stroke-width="3.75" stroke-linejoin="round" opacity="0.8" class="s-derived"/><path d="M644 376L630 364 613 352 596 342 578 334 559 327 539 322 520 320 500 319 480 320 461 322 441 327 422 334 404 342 387 352 370 364 356 376" fill="none" stroke-width="3.75" stroke-linejoin="round" opacity="0.8" class="s-derived"/><path d="M130 380L348 380" fill="none" stroke-width="3.75" stroke-linejoin="round" opacity="0.8" class="s-derived"/><path d="M652 380L871 380" fill="none" stroke-width="3.75" stroke-linejoin="round" opacity="0.8" class="s-derived"/><path d="M644 380L356 380" fill="none" stroke-width="3.75" stroke-linejoin="round" opacity="0.8" class="s-derived"/><path d="M644 384L630 396 613 408 596 418 578 426 559 433 539 438 520 440 500 441 480 440 461 438 441 433 422 426 404 418 387 408 370 396 356 384" fill="none" stroke-width="3.75" stroke-linejoin="round" opacity="0.8" class="s-derived"/><path d="M652 376L665 361 677 345 686 328 695 310 701 291 706 271 709 250 710 230 708 210 705 189 700 169 693 150 684 132 674 115 662 98 648 84" fill="none" stroke-width="3.75" stroke-linejoin="round" opacity="0.8" class="s-derived"/><path d="M352 84L338 98 326 115 316 132 307 150 300 169 295 189 292 210 290 230 291 250 294 271 299 291 305 310 314 328 323 345 335 361 348 376" fill="none" stroke-width="3.75" stroke-linejoin="round" opacity="0.8" class="s-derived"/><path d="M644 387L632 406 619 422 602 437 583 449 563 459 543 466 522 470 500 472 478 470 457 466 437 459 417 449 398 437 381 422 368 406 356 387" fill="none" stroke-width="3.75" stroke-linejoin="round" opacity="0.8" class="s-derived"/><path d="M650 376L657 358 663 337 665 317 665 295 663 274 657 254 650 236 640 217 628 200 613 185 597 172 579 160 561 152 541 145 520 141 500 140 480 141 459 145 439 152 421 160 403 172 387 185 372 200 360 217 350 236 343 254 337 274 335 295 335 317 337 337 343 358 350 376" fill="none" stroke-width="3.75" stroke-linejoin="round" opacity="0.8" class="s-derived"/><path d="M644 390L634 411 621 429 606 445 587 460 567 472 546 480 522 485 500 487 478 485 454 480 433 472 413 460 394 445 379 429 366 411 356 390" fill="none" stroke-width="3.75" stroke-linejoin="round" opacity="0.8" class="s-derived"/><path d="M649 376L653 360 656 341 656 323 654 304 650 287 644 270 636 254 626 238 615 224 602 212 586 200 570 191 554 184 537 179 519 175 500 174 481 175 463 179 446 184 430 191 414 200 398 212 385 224 374 238 364 254 356 270 350 287 346 304 344 323 344 341 347 360 351 376" fill="none" stroke-width="3.75" stroke-linejoin="round" opacity="0.8" class="s-derived"/><path d="M644 393L635 415 622 435 607 452 589 467 569 479 546 489 524 494 500 496 476 494 454 489 431 479 411 467 393 452 378 435 365 415 356 393" fill="none" stroke-width="3.75" stroke-linejoin="round" opacity="0.8" class="s-derived"/><path d="M649 376L652 359 653 341 652 324 649 308 644 292 637 276 629 261 619 248 609 236 595 224 582 214 567 206 551 199 533 194 517 191 500 190 483 191 467 194 449 199 433 206 418 214 405 224 393 234 381 248 371 261 363 276 356 292 351 308 348 324 347 341 348 359 351 376" fill="none" stroke-width="3.75" stroke-linejoin="round" opacity="0.8" class="s-derived"/></svg>
