<svg viewBox="0 0 1000 760" aria-hidden="true" focusable="false"><rect width="1000" height="760" class="f-bg"/><line x1="698" y1="380" x2="253" y2="380" stroke-width="2.5" opacity="0.52" class="s-line"/><line x1="696" y1="341" x2="259" y2="380" stroke-width="2.5" opacity="0.52" class="s-line"/><line x1="690" y1="301" x2="279" y2="377" stroke-width="2.5" opacity="0.52" class="s-line"/><line x1="682" y1="264" x2="308" y2="370" stroke-width="2.5" opacity="0.52" class="s-line"/><line x1="670" y1="229" x2="343" y2="358" stroke-width="2.5" opacity="0.52" class="s-line"/><line x1="655" y1="197" x2="380" y2="341" stroke-width="2.5" opacity="0.52" class="s-line"/><line x1="637" y1="166" x2="418" y2="318" stroke-width="2.5" opacity="0.52" class="s-line"/><line x1="617" y1="141" x2="449" y2="294" stroke-width="2.5" opacity="0.52" class="s-line"/><line x1="595" y1="120" x2="473" y2="269" stroke-width="2.5" opacity="0.52" class="s-line"/><line x1="571" y1="104" x2="488" y2="246" stroke-width="2.5" opacity="0.52" class="s-line"/><line x1="545" y1="91" x2="497" y2="228" stroke-width="2.5" opacity="0.52" class="s-line"/><line x1="520" y1="85" x2="500" y2="218" stroke-width="2.5" opacity="0.52" class="s-line"/><line x1="493" y1="84" x2="500" y2="216" stroke-width="2.5" opacity="0.52" class="s-line"/><line x1="468" y1="88" x2="501" y2="222" stroke-width="2.5" opacity="0.52" class="s-line"/><line x1="441" y1="97" x2="507" y2="237" stroke-width="2.5" opacity="0.52" class="s-line"/><line x1="417" y1="111" x2="519" y2="257" stroke-width="2.5" opacity="0.52" class="s-line"/><line x1="394" y1="130" x2="538" y2="281" stroke-width="2.5" opacity="0.52" class="s-line"/><line x1="373" y1="153" x2="566" y2="306" stroke-width="2.5" opacity="0.52" class="s-line"/><line x1="353" y1="182" x2="601" y2="331" stroke-width="2.5" opacity="0.52" class="s-line"/><line x1="337" y1="212" x2="639" y2="350" stroke-width="2.5" opacity="0.52" class="s-line"/><line x1="324" y1="246" x2="675" y2="365" stroke-width="2.5" opacity="0.52" class="s-line"/><line x1="313" y1="282" x2="708" y2="374" stroke-width="2.5" opacity="0.52" class="s-line"/><line x1="306" y1="322" x2="733" y2="379" stroke-width="2.5" opacity="0.52" class="s-line"/><line x1="303" y1="360" x2="745" y2="380" stroke-width="2.5" opacity="0.52" class="s-line"/><line x1="303" y1="400" x2="745" y2="380" stroke-width="2.5" opacity="0.52" class="s-line"/><line x1="306" y1="438" x2="733" y2="381" stroke-width="2.5" opacity="0.52" class="s-line"/><line x1="313" y1="478" x2="708" y2="386" stroke-width="2.5" opacity="0.52" class="s-line"/><line x1="324" y1="514" x2="675" y2="395" stroke-width="2.5" opacity="0.52" class="s-line"/><line x1="337" y1="548" x2="639" y2="410" stroke-width="2.5" opacity="0.52" class="s-line"/><line x1="353" y1="578" x2="601" y2="429" stroke-width="2.5" opacity="0.52" class="s-line"/><line x1="373" y1="607" x2="566" y2="454" stroke-width="2.5" opacity="0.52" class="s-line"/><line x1="394" y1="630" x2="538" y2="479" stroke-width="2.5" opacity="0.52" class="s-line"/><line x1="417" y1="649" x2="519" y2="503" stroke-width="2.5" opacity="0.52" class="s-line"/><line x1="441" y1="663" x2="507" y2="523" stroke-width="2.5" opacity="0.52" class="s-line"/><line x1="468" y1="672" x2="501" y2="538" stroke-width="2.5" opacity="0.52" class="s-line"/><line x1="493" y1="676" x2="500" y2="544" stroke-width="2.5" opacity="0.52" class="s-line"/><line x1="520" y1="675" x2="500" y2="542" stroke-width="2.5" opacity="0.52" class="s-line"/><line x1="545" y1="669" x2="497" y2="532" stroke-width="2.5" opacity="0.52" class="s-line"/><line x1="571" y1="656" x2="488" y2="514" stroke-width="2.5" opacity="0.52" class="s-line"/><line x1="595" y1="640" x2="473" y2="491" stroke-width="2.5" opacity="0.52" class="s-line"/><line x1="617" y1="619" x2="449" y2="466" stroke-width="2.5" opacity="0.52" class="s-line"/><line x1="637" y1="594" x2="418" y2="442" stroke-width="2.5" opacity="0.52" class="s-line"/><line x1="655" y1="563" x2="380" y2="419" stroke-width="2.5" opacity="0.52" class="s-line"/><line x1="670" y1="531" x2="343" y2="402" stroke-width="2.5" opacity="0.52" class="s-line"/><line x1="682" y1="496" x2="308" y2="390" stroke-width="2.5" opacity="0.52" class="s-line"/><line x1="690" y1="459" x2="279" y2="383" stroke-width="2.5" opacity="0.52" class="s-line"/><line x1="696" y1="419" x2="259" y2="380" stroke-width="2.5" opacity="0.52" class="s-line"/><line x1="698" y1="380" x2="253" y2="380" stroke-width="2.5" opacity="0.52" class="s-line"/><path d="M698 380L696 345 692 312 685 278 676 245 664 215 650 187 633 161 615 139 595 120 574 105 552 94 529 87 506 84 482 85 459 90 437 99 416 112 395 129 376 150 358 174 343 200 330 228 319 260 311 293 306 325 303 360 303 396 305 431 311 465 319 499 330 530 342 558 352 577 363 593 374 608 386 622 399 635 412 645 427 655 441 663 457 669 471 673 487 676 502 676 517 675 533 672 549 667 563 661 577 653 592 643 606 630 618 618 630 604 641 587 651 571 661 553 669 534 676 515 682 494 688 472 692 448 695 426 697 402 698 380" fill="none" stroke-width="5.75" class="s-base"/><path d="M253 380L270 378 290 375 312 369 334 362 355 353 375 344 394 333 413 322 430 309 446 296 460 283 473 269 483 255 491 241 497 227 500 215 502 226 508 240 517 255 528 270 541 284 555 297 570 310 588 322 607 334 626 344 646 353 667 362 688 369 709 374 730 378 747 380 730 382 709 386 688 391 667 398 646 407 626 416 607 426 588 438 570 450 555 463 541 476 528 490 517 505 508 520 502 534 500 545 497 533 491 519 483 505 473 491 460 477 446 464 430 451 413 438 394 427 375 416 355 407 334 398 312 391 290 385 270 382 253 380" fill="none" stroke-width="6.5" stroke-linejoin="round" class="s-derived"/></svg>
