<svg viewBox="0 0 1000 760" aria-hidden="true" focusable="false"><rect width="1000" height="760" class="f-bg"/><line x1="788" y1="398" x2="788" y2="354" stroke-width="2.5" opacity="0.52" class="s-line"/><line x1="736" y1="354" x2="788" y2="354" stroke-width="2.5" opacity="0.35" class="s-line"/><line x1="787" y1="382" x2="780" y2="346" stroke-width="2.5" opacity="0.52" class="s-line"/><line x1="736" y1="354" x2="780" y2="346" stroke-width="2.5" opacity="0.35" class="s-line"/><line x1="782" y1="366" x2="773" y2="340" stroke-width="2.5" opacity="0.52" class="s-line"/><line x1="736" y1="354" x2="773" y2="340" stroke-width="2.5" opacity="0.35" class="s-line"/><line x1="775" y1="350" x2="767" y2="336" stroke-width="2.5" opacity="0.52" class="s-line"/><line x1="736" y1="354" x2="767" y2="336" stroke-width="2.5" opacity="0.35" class="s-line"/><line x1="765" y1="335" x2="763" y2="333" stroke-width="2.5" opacity="0.52" class="s-line"/><line x1="736" y1="354" x2="763" y2="333" stroke-width="2.5" opacity="0.35" class="s-line"/><line x1="752" y1="320" x2="761" y2="329" stroke-width="2.5" opacity="0.52" class="s-line"/><line x1="736" y1="354" x2="761" y2="329" stroke-width="2.5" opacity="0.35" class="s-line"/><line x1="737" y1="306" x2="760" y2="325" stroke-width="2.5" opacity="0.52" class="s-line"/><line x1="736" y1="354" x2="760" y2="325" stroke-width="2.5" opacity="0.35" class="s-line"/><line x1="719" y1="293" x2="759" y2="320" stroke-width="2.5" opacity="0.52" class="s-line"/><line x1="736" y1="354" x2="759" y2="320" stroke-width="2.5" opacity="0.35" class="s-line"/><line x1="698" y1="281" x2="758" y2="313" stroke-width="2.5" opacity="0.52" class="s-line"/><line x1="736" y1="354" x2="758" y2="313" stroke-width="2.5" opacity="0.35" class="s-line"/><line x1="676" y1="270" x2="757" y2="306" stroke-width="2.5" opacity="0.52" class="s-line"/><line x1="736" y1="354" x2="757" y2="306" stroke-width="2.5" opacity="0.35" class="s-line"/><line x1="652" y1="261" x2="756" y2="298" stroke-width="2.5" opacity="0.52" class="s-line"/><line x1="736" y1="354" x2="756" y2="298" stroke-width="2.5" opacity="0.35" class="s-line"/><line x1="627" y1="253" x2="755" y2="289" stroke-width="2.5" opacity="0.52" class="s-line"/><line x1="736" y1="354" x2="755" y2="289" stroke-width="2.5" opacity="0.35" class="s-line"/><line x1="600" y1="246" x2="752" y2="279" stroke-width="2.5" opacity="0.52" class="s-line"/><line x1="736" y1="354" x2="752" y2="279" stroke-width="2.5" opacity="0.35" class="s-line"/><line x1="572" y1="241" x2="749" y2="269" stroke-width="2.5" opacity="0.52" class="s-line"/><line x1="736" y1="354" x2="749" y2="269" stroke-width="2.5" opacity="0.35" class="s-line"/><line x1="543" y1="238" x2="746" y2="257" stroke-width="2.5" opacity="0.52" class="s-line"/><line x1="736" y1="354" x2="746" y2="257" stroke-width="2.5" opacity="0.35" class="s-line"/><line x1="513" y1="235" x2="741" y2="245" stroke-width="2.5" opacity="0.52" class="s-line"/><line x1="736" y1="354" x2="741" y2="245" stroke-width="2.5" opacity="0.35" class="s-line"/><line x1="483" y1="235" x2="734" y2="231" stroke-width="2.5" opacity="0.52" class="s-line"/><line x1="736" y1="354" x2="734" y2="231" stroke-width="2.5" opacity="0.35" class="s-line"/><line x1="454" y1="236" x2="727" y2="217" stroke-width="2.5" opacity="0.52" class="s-line"/><line x1="736" y1="354" x2="727" y2="217" stroke-width="2.5" opacity="0.35" class="s-line"/><line x1="426" y1="239" x2="718" y2="203" stroke-width="2.5" opacity="0.52" class="s-line"/><line x1="736" y1="354" x2="718" y2="203" stroke-width="2.5" opacity="0.35" class="s-line"/><line x1="397" y1="243" x2="706" y2="187" stroke-width="2.5" opacity="0.52" class="s-line"/><line x1="736" y1="354" x2="706" y2="187" stroke-width="2.5" opacity="0.35" class="s-line"/><line x1="370" y1="249" x2="691" y2="170" stroke-width="2.5" opacity="0.52" class="s-line"/><line x1="736" y1="354" x2="691" y2="170" stroke-width="2.5" opacity="0.35" class="s-line"/><line x1="343" y1="257" x2="672" y2="152" stroke-width="2.5" opacity="0.52" class="s-line"/><line x1="736" y1="354" x2="672" y2="152" stroke-width="2.5" opacity="0.35" class="s-line"/><line x1="318" y1="266" x2="649" y2="135" stroke-width="2.5" opacity="0.52" class="s-line"/><line x1="736" y1="354" x2="649" y2="135" stroke-width="2.5" opacity="0.35" class="s-line"/><line x1="295" y1="276" x2="621" y2="117" stroke-width="2.5" opacity="0.52" class="s-line"/><line x1="736" y1="354" x2="621" y2="117" stroke-width="2.5" opacity="0.35" class="s-line"/><line x1="273" y1="288" x2="586" y2="101" stroke-width="2.5" opacity="0.52" class="s-line"/><line x1="736" y1="354" x2="586" y2="101" stroke-width="2.5" opacity="0.35" class="s-line"/><line x1="255" y1="299" x2="546" y2="90" stroke-width="2.5" opacity="0.52" class="s-line"/><line x1="736" y1="354" x2="546" y2="90" stroke-width="2.5" opacity="0.35" class="s-line"/><line x1="238" y1="313" x2="494" y2="84" stroke-width="2.5" opacity="0.52" class="s-line"/><line x1="736" y1="354" x2="494" y2="84" stroke-width="2.5" opacity="0.35" class="s-line"/><line x1="224" y1="327" x2="434" y2="88" stroke-width="2.5" opacity="0.52" class="s-line"/><line x1="736" y1="354" x2="434" y2="88" stroke-width="2.5" opacity="0.35" class="s-line"/><line x1="213" y1="342" x2="367" y2="109" stroke-width="2.5" opacity="0.52" class="s-line"/><line x1="736" y1="354" x2="367" y2="109" stroke-width="2.5" opacity="0.35" class="s-line"/><line x1="204" y1="358" x2="299" y2="152" stroke-width="2.5" opacity="0.52" class="s-line"/><line x1="736" y1="354" x2="299" y2="152" stroke-width="2.5" opacity="0.35" class="s-line"/><line x1="198" y1="374" x2="240" y2="219" stroke-width="2.5" opacity="0.52" class="s-line"/><line x1="736" y1="354" x2="240" y2="219" stroke-width="2.5" opacity="0.35" class="s-line"/><line x1="195" y1="391" x2="202" y2="308" stroke-width="2.5" opacity="0.52" class="s-line"/><line x1="736" y1="354" x2="202" y2="308" stroke-width="2.5" opacity="0.35" class="s-line"/><line x1="195" y1="406" x2="194" y2="400" stroke-width="2.5" opacity="0.52" class="s-line"/><line x1="736" y1="354" x2="194" y2="400" stroke-width="2.5" opacity="0.35" class="s-line"/><line x1="198" y1="422" x2="217" y2="494" stroke-width="2.5" opacity="0.52" class="s-line"/><line x1="736" y1="354" x2="217" y2="494" stroke-width="2.5" opacity="0.35" class="s-line"/><line x1="204" y1="438" x2="265" y2="571" stroke-width="2.5" opacity="0.52" class="s-line"/><line x1="736" y1="354" x2="265" y2="571" stroke-width="2.5" opacity="0.35" class="s-line"/><line x1="213" y1="454" x2="326" y2="625" stroke-width="2.5" opacity="0.52" class="s-line"/><line x1="736" y1="354" x2="326" y2="625" stroke-width="2.5" opacity="0.35" class="s-line"/><line x1="224" y1="469" x2="390" y2="658" stroke-width="2.5" opacity="0.52" class="s-line"/><line x1="736" y1="354" x2="390" y2="658" stroke-width="2.5" opacity="0.35" class="s-line"/><line x1="238" y1="484" x2="450" y2="673" stroke-width="2.5" opacity="0.52" class="s-line"/><line x1="736" y1="354" x2="450" y2="673" stroke-width="2.5" opacity="0.35" class="s-line"/><line x1="255" y1="497" x2="503" y2="676" stroke-width="2.5" opacity="0.52" class="s-line"/><line x1="736" y1="354" x2="503" y2="676" stroke-width="2.5" opacity="0.35" class="s-line"/><line x1="273" y1="509" x2="547" y2="672" stroke-width="2.5" opacity="0.52" class="s-line"/><line x1="736" y1="354" x2="547" y2="672" stroke-width="2.5" opacity="0.35" class="s-line"/><line x1="295" y1="520" x2="586" y2="662" stroke-width="2.5" opacity="0.52" class="s-line"/><line x1="736" y1="354" x2="586" y2="662" stroke-width="2.5" opacity="0.35" class="s-line"/><line x1="318" y1="531" x2="619" y2="650" stroke-width="2.5" opacity="0.52" class="s-line"/><line x1="736" y1="354" x2="619" y2="650" stroke-width="2.5" opacity="0.35" class="s-line"/><line x1="343" y1="540" x2="647" y2="636" stroke-width="2.5" opacity="0.52" class="s-line"/><line x1="736" y1="354" x2="647" y2="636" stroke-width="2.5" opacity="0.35" class="s-line"/><line x1="370" y1="547" x2="670" y2="621" stroke-width="2.5" opacity="0.52" class="s-line"/><line x1="736" y1="354" x2="670" y2="621" stroke-width="2.5" opacity="0.35" class="s-line"/><line x1="397" y1="553" x2="690" y2="607" stroke-width="2.5" opacity="0.52" class="s-line"/><line x1="736" y1="354" x2="690" y2="607" stroke-width="2.5" opacity="0.35" class="s-line"/><line x1="426" y1="557" x2="707" y2="592" stroke-width="2.5" opacity="0.52" class="s-line"/><line x1="736" y1="354" x2="707" y2="592" stroke-width="2.5" opacity="0.35" class="s-line"/><line x1="454" y1="560" x2="720" y2="579" stroke-width="2.5" opacity="0.52" class="s-line"/><line x1="736" y1="354" x2="720" y2="579" stroke-width="2.5" opacity="0.35" class="s-line"/><line x1="483" y1="561" x2="733" y2="565" stroke-width="2.5" opacity="0.52" class="s-line"/><line x1="736" y1="354" x2="733" y2="565" stroke-width="2.5" opacity="0.35" class="s-line"/><line x1="513" y1="561" x2="744" y2="552" stroke-width="2.5" opacity="0.52" class="s-line"/><line x1="736" y1="354" x2="744" y2="552" stroke-width="2.5" opacity="0.35" class="s-line"/><line x1="543" y1="559" x2="754" y2="539" stroke-width="2.5" opacity="0.52" class="s-line"/><line x1="736" y1="354" x2="754" y2="539" stroke-width="2.5" opacity="0.35" class="s-line"/><line x1="572" y1="555" x2="763" y2="526" stroke-width="2.5" opacity="0.52" class="s-line"/><line x1="736" y1="354" x2="763" y2="526" stroke-width="2.5" opacity="0.35" class="s-line"/><line x1="600" y1="550" x2="771" y2="513" stroke-width="2.5" opacity="0.52" class="s-line"/><line x1="736" y1="354" x2="771" y2="513" stroke-width="2.5" opacity="0.35" class="s-line"/><line x1="627" y1="543" x2="778" y2="501" stroke-width="2.5" opacity="0.52" class="s-line"/><line x1="736" y1="354" x2="778" y2="501" stroke-width="2.5" opacity="0.35" class="s-line"/><line x1="652" y1="536" x2="784" y2="489" stroke-width="2.5" opacity="0.52" class="s-line"/><line x1="736" y1="354" x2="784" y2="489" stroke-width="2.5" opacity="0.35" class="s-line"/><line x1="676" y1="526" x2="790" y2="476" stroke-width="2.5" opacity="0.52" class="s-line"/><line x1="736" y1="354" x2="790" y2="476" stroke-width="2.5" opacity="0.35" class="s-line"/><line x1="698" y1="515" x2="795" y2="463" stroke-width="2.5" opacity="0.52" class="s-line"/><line x1="736" y1="354" x2="795" y2="463" stroke-width="2.5" opacity="0.35" class="s-line"/><line x1="719" y1="503" x2="799" y2="450" stroke-width="2.5" opacity="0.52" class="s-line"/><line x1="736" y1="354" x2="799" y2="450" stroke-width="2.5" opacity="0.35" class="s-line"/><line x1="737" y1="490" x2="803" y2="436" stroke-width="2.5" opacity="0.52" class="s-line"/><line x1="736" y1="354" x2="803" y2="436" stroke-width="2.5" opacity="0.35" class="s-line"/><line x1="752" y1="476" x2="806" y2="422" stroke-width="2.5" opacity="0.52" class="s-line"/><line x1="736" y1="354" x2="806" y2="422" stroke-width="2.5" opacity="0.35" class="s-line"/><line x1="765" y1="461" x2="806" y2="407" stroke-width="2.5" opacity="0.52" class="s-line"/><line x1="736" y1="354" x2="806" y2="407" stroke-width="2.5" opacity="0.35" class="s-line"/><line x1="775" y1="447" x2="805" y2="393" stroke-width="2.5" opacity="0.52" class="s-line"/><line x1="736" y1="354" x2="805" y2="393" stroke-width="2.5" opacity="0.35" class="s-line"/><line x1="782" y1="431" x2="802" y2="378" stroke-width="2.5" opacity="0.52" class="s-line"/><line x1="736" y1="354" x2="802" y2="378" stroke-width="2.5" opacity="0.35" class="s-line"/><line x1="787" y1="415" x2="796" y2="365" stroke-width="2.5" opacity="0.52" class="s-line"/><line x1="736" y1="354" x2="796" y2="365" stroke-width="2.5" opacity="0.35" class="s-line"/><line x1="788" y1="398" x2="788" y2="354" stroke-width="2.5" opacity="0.52" class="s-line"/><line x1="736" y1="354" x2="788" y2="354" stroke-width="2.5" opacity="0.35" class="s-line"/><path d="M788 398L787 382 782 366 775 350 765 335 752 320 738 307 721 295 701 283 679 272 656 263 632 255 605 248 577 242 548 238 521 236 491 235 463 236 433 238 404 242 378 247 351 254 327 262 303 272 282 282 262 295 246 307 230 321 218 335 208 350 201 365 196 381 195 398 196 413 200 429 207 444 217 460 229 475 243 488 261 501 281 513 303 524 326 534 351 542 378 549 406 555 433 558 461 561 491 561 519 561 548 558 577 554 604 549 629 543 655 534 679 525 701 514 721 502 739 488 754 474 766 460 775 446 783 430 787 415 788 398" fill="none" stroke-width="5.75" class="s-base"/><path d="M788 354L780 345 765 335 761 329 759 322 755 290 749 269 740 243 727 218 715 199 701 182 685 165 668 149 646 132 623 118 598 106 573 97 549 90 521 86 494 84 465 84 438 88 409 94 380 104 354 116 328 130 307 145 283 167 264 187 246 210 231 235 218 262 209 284 201 314 196 344 194 369 194 400 197 425 204 455 213 483 225 510 239 535 258 563 276 583 298 604 322 623 346 638 374 652 401 662 432 670 460 675 491 676 519 675 549 671 579 664 609 654 638 640 666 624 691 606 715 584 737 560 759 531 778 501 792 470 802 441 806 416 806 403 805 392 803 381 799 371 794 362 788 354" fill="none" stroke-width="6.5" stroke-linejoin="round" class="s-derived"/><circle cx="736" cy="354" r="5" class="f-derived"/><circle cx="736" cy="354" r="10" fill="none" opacity="0.35" class="s-derived"/></svg>
