<svg viewBox="0 0 1000 760" aria-hidden="true" focusable="false"><rect width="1000" height="760" class="f-bg"/><line x1="-317" y1="-2000" x2="873" y2="2760" stroke-width="2.5" opacity="0.45" class="s-line"/><line x1="-345" y1="-2000" x2="908" y2="2760" stroke-width="2.5" opacity="0.45" class="s-line"/><line x1="-377" y1="-2000" x2="945" y2="2760" stroke-width="2.5" opacity="0.45" class="s-line"/><line x1="-413" y1="-2000" x2="987" y2="2760" stroke-width="2.5" opacity="0.45" class="s-line"/><line x1="-455" y1="-2000" x2="1033" y2="2760" stroke-width="2.5" opacity="0.45" class="s-line"/><line x1="-504" y1="-2000" x2="1084" y2="2760" stroke-width="2.5" opacity="0.45" class="s-line"/><line x1="-560" y1="-2000" x2="1141" y2="2760" stroke-width="2.5" opacity="0.45" class="s-line"/><line x1="-626" y1="-2000" x2="1206" y2="2760" stroke-width="2.5" opacity="0.45" class="s-line"/><line x1="-705" y1="-2000" x2="1280" y2="2760" stroke-width="2.5" opacity="0.45" class="s-line"/><line x1="-799" y1="-2000" x2="1366" y2="2760" stroke-width="2.5" opacity="0.45" class="s-line"/><line x1="-914" y1="-2000" x2="1469" y2="2760" stroke-width="2.5" opacity="0.45" class="s-line"/><line x1="-1055" y1="-2000" x2="1592" y2="2760" stroke-width="2.5" opacity="0.45" class="s-line"/><line x1="-1234" y1="-2000" x2="1745" y2="2760" stroke-width="2.5" opacity="0.45" class="s-line"/><line x1="-1467" y1="-2000" x2="1939" y2="2760" stroke-width="2.5" opacity="0.45" class="s-line"/><line x1="-1780" y1="-2000" x2="2196" y2="2760" stroke-width="2.5" opacity="0.45" class="s-line"/><line x1="-2000" y1="-1779" x2="2553" y2="2760" stroke-width="2.5" opacity="0.45" class="s-line"/><line x1="-2000" y1="-1292" x2="3000" y2="2692" stroke-width="2.5" opacity="0.45" class="s-line"/><line x1="-2000" y1="-802" x2="3000" y2="2181" stroke-width="2.5" opacity="0.45" class="s-line"/><line x1="-2000" y1="-309" x2="3000" y2="1673" stroke-width="2.5" opacity="0.45" class="s-line"/><line x1="-2000" y1="187" x2="3000" y2="1168" stroke-width="2.5" opacity="0.45" class="s-line"/><line x1="-2000" y1="686" x2="3000" y2="666" stroke-width="2.5" opacity="0.45" class="s-line"/><line x1="-2000" y1="1168" x2="3000" y2="187" stroke-width="2.5" opacity="0.45" class="s-line"/><line x1="-2000" y1="1673" x2="3000" y2="-309" stroke-width="2.5" opacity="0.45" class="s-line"/><line x1="-2000" y1="2181" x2="3000" y2="-802" stroke-width="2.5" opacity="0.45" class="s-line"/><line x1="-2000" y1="2692" x2="3000" y2="-1292" stroke-width="2.5" opacity="0.45" class="s-line"/><line x1="-1553" y1="2760" x2="3000" y2="-1779" stroke-width="2.5" opacity="0.45" class="s-line"/><line x1="-1196" y1="2760" x2="2780" y2="-2000" stroke-width="2.5" opacity="0.45" class="s-line"/><line x1="-939" y1="2760" x2="2467" y2="-2000" stroke-width="2.5" opacity="0.45" class="s-line"/><line x1="-745" y1="2760" x2="2234" y2="-2000" stroke-width="2.5" opacity="0.45" class="s-line"/><line x1="-592" y1="2760" x2="2055" y2="-2000" stroke-width="2.5" opacity="0.45" class="s-line"/><line x1="-469" y1="2760" x2="1914" y2="-2000" stroke-width="2.5" opacity="0.45" class="s-line"/><line x1="-366" y1="2760" x2="1799" y2="-2000" stroke-width="2.5" opacity="0.45" class="s-line"/><line x1="-280" y1="2760" x2="1705" y2="-2000" stroke-width="2.5" opacity="0.45" class="s-line"/><line x1="-206" y1="2760" x2="1626" y2="-2000" stroke-width="2.5" opacity="0.45" class="s-line"/><line x1="-141" y1="2760" x2="1560" y2="-2000" stroke-width="2.5" opacity="0.45" class="s-line"/><line x1="-84" y1="2760" x2="1504" y2="-2000" stroke-width="2.5" opacity="0.45" class="s-line"/><line x1="-33" y1="2760" x2="1455" y2="-2000" stroke-width="2.5" opacity="0.45" class="s-line"/><line x1="13" y1="2760" x2="1413" y2="-2000" stroke-width="2.5" opacity="0.45" class="s-line"/><line x1="55" y1="2760" x2="1377" y2="-2000" stroke-width="2.5" opacity="0.45" class="s-line"/><line x1="92" y1="2760" x2="1345" y2="-2000" stroke-width="2.5" opacity="0.45" class="s-line"/><line x1="127" y1="2760" x2="1317" y2="-2000" stroke-width="2.5" opacity="0.45" class="s-line"/><path d="M352 676L648 676" fill="none" stroke-width="5.75" class="s-base"/><path d="M204 84L240 222 259 286 278 343 296 396 315 446 334 489 352 528 370 563 389 593 407 618 426 639 444 655 462 667 481 674 500 676 518 674 536 667 555 656 574 640 592 619 611 593 630 563 648 528 666 489 685 446 704 396 722 343 741 286 760 222 796 84" fill="none" stroke-width="6.5" stroke-linejoin="round" class="s-derived"/></svg>
