<svg viewBox="0 0 1000 760" aria-hidden="true" focusable="false"><rect width="1000" height="760" class="f-bg"/><line x1="494" y1="521" x2="494" y2="521" stroke-width="2.5" opacity="0.52" class="s-line"/><line x1="360" y1="521" x2="494" y2="521" stroke-width="2.5" opacity="0.35" class="s-line"/><line x1="484" y1="485" x2="466" y2="456" stroke-width="2.5" opacity="0.52" class="s-line"/><line x1="360" y1="521" x2="466" y2="456" stroke-width="2.5" opacity="0.35" class="s-line"/><line x1="453" y1="453" x2="430" y2="434" stroke-width="2.5" opacity="0.52" class="s-line"/><line x1="360" y1="521" x2="430" y2="434" stroke-width="2.5" opacity="0.35" class="s-line"/><line x1="408" y1="424" x2="408" y2="424" stroke-width="2.5" opacity="0.52" class="s-line"/><line x1="360" y1="521" x2="408" y2="424" stroke-width="2.5" opacity="0.35" class="s-line"/><line x1="355" y1="403" x2="394" y2="416" stroke-width="2.5" opacity="0.52" class="s-line"/><line x1="360" y1="521" x2="394" y2="416" stroke-width="2.5" opacity="0.35" class="s-line"/><line x1="303" y1="390" x2="380" y2="403" stroke-width="2.5" opacity="0.52" class="s-line"/><line x1="360" y1="521" x2="380" y2="403" stroke-width="2.5" opacity="0.35" class="s-line"/><line x1="260" y1="387" x2="355" y2="384" stroke-width="2.5" opacity="0.52" class="s-line"/><line x1="360" y1="521" x2="355" y2="384" stroke-width="2.5" opacity="0.35" class="s-line"/><line x1="232" y1="393" x2="268" y2="371" stroke-width="2.5" opacity="0.52" class="s-line"/><line x1="360" y1="521" x2="268" y2="371" stroke-width="2.5" opacity="0.35" class="s-line"/><line x1="225" y1="408" x2="249" y2="541" stroke-width="2.5" opacity="0.52" class="s-line"/><line x1="360" y1="521" x2="249" y2="541" stroke-width="2.5" opacity="0.35" class="s-line"/><line x1="240" y1="431" x2="339" y2="540" stroke-width="2.5" opacity="0.52" class="s-line"/><line x1="360" y1="521" x2="339" y2="540" stroke-width="2.5" opacity="0.35" class="s-line"/><line x1="272" y1="460" x2="356" y2="526" stroke-width="2.5" opacity="0.52" class="s-line"/><line x1="360" y1="521" x2="356" y2="526" stroke-width="2.5" opacity="0.35" class="s-line"/><line x1="320" y1="495" x2="360" y2="522" stroke-width="2.5" opacity="0.52" class="s-line"/><line x1="360" y1="521" x2="360" y2="522" stroke-width="2.5" opacity="0.35" class="s-line"/><line x1="373" y1="530" x2="360" y2="521" stroke-width="2.5" opacity="0.52" class="s-line"/><line x1="360" y1="521" x2="360" y2="521" stroke-width="2.5" opacity="0.35" class="s-line"/><line x1="425" y1="566" x2="361" y2="520" stroke-width="2.5" opacity="0.52" class="s-line"/><line x1="360" y1="521" x2="361" y2="520" stroke-width="2.5" opacity="0.35" class="s-line"/><line x1="465" y1="597" x2="368" y2="512" stroke-width="2.5" opacity="0.52" class="s-line"/><line x1="360" y1="521" x2="368" y2="512" stroke-width="2.5" opacity="0.35" class="s-line"/><line x1="490" y1="624" x2="408" y2="492" stroke-width="2.5" opacity="0.52" class="s-line"/><line x1="360" y1="521" x2="408" y2="492" stroke-width="2.5" opacity="0.35" class="s-line"/><line x1="493" y1="644" x2="516" y2="598" stroke-width="2.5" opacity="0.52" class="s-line"/><line x1="360" y1="521" x2="516" y2="598" stroke-width="2.5" opacity="0.35" class="s-line"/><line x1="476" y1="654" x2="393" y2="672" stroke-width="2.5" opacity="0.52" class="s-line"/><line x1="360" y1="521" x2="393" y2="672" stroke-width="2.5" opacity="0.35" class="s-line"/><line x1="439" y1="655" x2="349" y2="648" stroke-width="2.5" opacity="0.52" class="s-line"/><line x1="360" y1="521" x2="349" y2="648" stroke-width="2.5" opacity="0.35" class="s-line"/><line x1="391" y1="647" x2="332" y2="633" stroke-width="2.5" opacity="0.52" class="s-line"/><line x1="360" y1="521" x2="332" y2="633" stroke-width="2.5" opacity="0.35" class="s-line"/><line x1="337" y1="630" x2="319" y2="622" stroke-width="2.5" opacity="0.52" class="s-line"/><line x1="360" y1="521" x2="319" y2="622" stroke-width="2.5" opacity="0.35" class="s-line"/><line x1="287" y1="605" x2="302" y2="614" stroke-width="2.5" opacity="0.52" class="s-line"/><line x1="360" y1="521" x2="302" y2="614" stroke-width="2.5" opacity="0.35" class="s-line"/><line x1="249" y1="574" x2="273" y2="601" stroke-width="2.5" opacity="0.52" class="s-line"/><line x1="360" y1="521" x2="273" y2="601" stroke-width="2.5" opacity="0.35" class="s-line"/><line x1="228" y1="539" x2="234" y2="560" stroke-width="2.5" opacity="0.52" class="s-line"/><line x1="360" y1="521" x2="234" y2="560" stroke-width="2.5" opacity="0.35" class="s-line"/><line x1="228" y1="503" x2="234" y2="483" stroke-width="2.5" opacity="0.52" class="s-line"/><line x1="360" y1="521" x2="234" y2="483" stroke-width="2.5" opacity="0.35" class="s-line"/><line x1="249" y1="469" x2="273" y2="442" stroke-width="2.5" opacity="0.52" class="s-line"/><line x1="360" y1="521" x2="273" y2="442" stroke-width="2.5" opacity="0.35" class="s-line"/><line x1="287" y1="438" x2="302" y2="429" stroke-width="2.5" opacity="0.52" class="s-line"/><line x1="360" y1="521" x2="302" y2="429" stroke-width="2.5" opacity="0.35" class="s-line"/><line x1="337" y1="413" x2="319" y2="420" stroke-width="2.5" opacity="0.52" class="s-line"/><line x1="360" y1="521" x2="319" y2="420" stroke-width="2.5" opacity="0.35" class="s-line"/><line x1="391" y1="396" x2="332" y2="410" stroke-width="2.5" opacity="0.52" class="s-line"/><line x1="360" y1="521" x2="332" y2="410" stroke-width="2.5" opacity="0.35" class="s-line"/><line x1="439" y1="387" x2="349" y2="395" stroke-width="2.5" opacity="0.52" class="s-line"/><line x1="360" y1="521" x2="349" y2="395" stroke-width="2.5" opacity="0.35" class="s-line"/><line x1="476" y1="389" x2="393" y2="370" stroke-width="2.5" opacity="0.52" class="s-line"/><line x1="360" y1="521" x2="393" y2="370" stroke-width="2.5" opacity="0.35" class="s-line"/><line x1="493" y1="399" x2="516" y2="444" stroke-width="2.5" opacity="0.52" class="s-line"/><line x1="360" y1="521" x2="516" y2="444" stroke-width="2.5" opacity="0.35" class="s-line"/><line x1="490" y1="418" x2="408" y2="551" stroke-width="2.5" opacity="0.52" class="s-line"/><line x1="360" y1="521" x2="408" y2="551" stroke-width="2.5" opacity="0.35" class="s-line"/><line x1="465" y1="445" x2="368" y2="531" stroke-width="2.5" opacity="0.52" class="s-line"/><line x1="360" y1="521" x2="368" y2="531" stroke-width="2.5" opacity="0.35" class="s-line"/><line x1="425" y1="477" x2="361" y2="523" stroke-width="2.5" opacity="0.52" class="s-line"/><line x1="360" y1="521" x2="361" y2="523" stroke-width="2.5" opacity="0.35" class="s-line"/><line x1="373" y1="513" x2="360" y2="521" stroke-width="2.5" opacity="0.52" class="s-line"/><line x1="360" y1="521" x2="360" y2="521" stroke-width="2.5" opacity="0.35" class="s-line"/><line x1="320" y1="548" x2="360" y2="521" stroke-width="2.5" opacity="0.52" class="s-line"/><line x1="360" y1="521" x2="360" y2="521" stroke-width="2.5" opacity="0.35" class="s-line"/><line x1="272" y1="582" x2="356" y2="517" stroke-width="2.5" opacity="0.52" class="s-line"/><line x1="360" y1="521" x2="356" y2="517" stroke-width="2.5" opacity="0.35" class="s-line"/><line x1="240" y1="612" x2="339" y2="503" stroke-width="2.5" opacity="0.52" class="s-line"/><line x1="360" y1="521" x2="339" y2="503" stroke-width="2.5" opacity="0.35" class="s-line"/><line x1="225" y1="635" x2="249" y2="501" stroke-width="2.5" opacity="0.52" class="s-line"/><line x1="360" y1="521" x2="249" y2="501" stroke-width="2.5" opacity="0.35" class="s-line"/><line x1="232" y1="650" x2="268" y2="672" stroke-width="2.5" opacity="0.52" class="s-line"/><line x1="360" y1="521" x2="268" y2="672" stroke-width="2.5" opacity="0.35" class="s-line"/><line x1="260" y1="656" x2="355" y2="659" stroke-width="2.5" opacity="0.52" class="s-line"/><line x1="360" y1="521" x2="355" y2="659" stroke-width="2.5" opacity="0.35" class="s-line"/><line x1="303" y1="652" x2="380" y2="639" stroke-width="2.5" opacity="0.52" class="s-line"/><line x1="360" y1="521" x2="380" y2="639" stroke-width="2.5" opacity="0.35" class="s-line"/><line x1="355" y1="639" x2="394" y2="627" stroke-width="2.5" opacity="0.52" class="s-line"/><line x1="360" y1="521" x2="394" y2="627" stroke-width="2.5" opacity="0.35" class="s-line"/><line x1="408" y1="618" x2="408" y2="618" stroke-width="2.5" opacity="0.52" class="s-line"/><line x1="360" y1="521" x2="408" y2="618" stroke-width="2.5" opacity="0.35" class="s-line"/><line x1="453" y1="590" x2="430" y2="609" stroke-width="2.5" opacity="0.52" class="s-line"/><line x1="360" y1="521" x2="430" y2="609" stroke-width="2.5" opacity="0.35" class="s-line"/><line x1="484" y1="557" x2="466" y2="586" stroke-width="2.5" opacity="0.52" class="s-line"/><line x1="360" y1="521" x2="466" y2="586" stroke-width="2.5" opacity="0.35" class="s-line"/><line x1="494" y1="521" x2="494" y2="521" stroke-width="2.5" opacity="0.52" class="s-line"/><line x1="360" y1="521" x2="494" y2="521" stroke-width="2.5" opacity="0.35" class="s-line"/><circle cx="360" cy="218" r="135" fill="none" stroke-width="3.75" opacity="0.85" class="s-line"/><circle cx="663" cy="521" r="135" fill="none" stroke-width="3.75" opacity="0.85" class="s-line"/><line x1="360" y1="218" x2="494" y2="218" stroke-width="2.5" opacity="0.8" class="s-line"/><line x1="494" y1="218" x2="494" y2="521" stroke-width="2.5" opacity="0.6" stroke-dasharray="5 5" class="s-line"/><line x1="663" y1="521" x2="797" y2="521" stroke-width="2.5" opacity="0.8" class="s-line"/><line x1="797" y1="521" x2="494" y2="521" stroke-width="2.5" opacity="0.6" stroke-dasharray="5 5" class="s-line"/><circle cx="494" cy="218" r="3" class="f-line"/><circle cx="797" cy="521" r="3" class="f-line"/><path d="M494 521L493 509 489 496 482 484 473 471 460 459 446 447 428 435 409 425 386 414 360 405 335 397 310 391 286 388 265 387 248 388 235 391 230 395 226 399 225 404 226 409 228 416 233 423 247 439 268 457 294 477 411 556 453 587 471 603 484 617 492 629 494 639 493 643 491 647 486 650 481 653 466 656 445 656 420 653 392 647 363 639 337 630 315 620 294 609 275 597 259 584 246 571 237 559 230 544 226 531 225 519 227 507 231 496 237 484 245 473 256 461 269 450 284 440 302 429 322 419 343 411 366 403 389 396 412 391 433 388 452 387 466 387 478 389 487 393 492 397 494 404 493 411 489 419 482 429 463 448 433 471 399 495 306 558 261 592 243 608 231 622 226 634 225 639 226 643 229 647 233 650 246 655 264 656 288 654 316 650 344 643 372 634 398 623 419 612 439 601 455 588 469 576 480 562 488 549 493 535 494 521" fill="none" stroke-width="5.75" class="s-base"/><circle cx="494" cy="521" r="4" class="f-base"/><path d="M494 521L494 510 492 499 488 489 484 479 477 469 471 461 463 454 453 446 438 438 411 426 400 420 391 413 361 388 349 380 338 374 322 369 306 367 288 367 272 370 261 374 249 379 238 387 231 394 220 406 215 415 210 425 206 436 203 447 203 459 203 471 206 488 210 498 215 508 221 517 231 528 238 534 249 541 267 549 277 551 289 553 308 552 325 547 341 539 353 530 364 516 372 509 381 502 392 496 406 492 422 490 435 490 451 493 468 500 483 510 497 524 505 537 510 547 514 558 517 575 516 593 513 610 506 625 501 635 494 643 483 654 468 664 453 671 436 675 418 676 401 674 384 669 369 662 353 651 329 630 320 623 309 617 280 604 264 595 253 586 244 575 236 564 231 552 227 539 225 526 225 515 227 502 231 489 237 477 244 466 253 457 263 449 275 441 310 425 320 419 330 412 354 391 373 378 386 373 399 369 410 367 423 366 436 367 450 370 465 376 476 383 487 392 494 399 504 412 509 422 514 439 516 450 517 462 516 474 514 485 508 501 503 510 493 523 486 529 476 538 458 547 447 550 435 552 415 552 396 548 380 540 367 530 355 516 348 509 337 501 325 496 312 492 297 490 283 490 267 494 249 501 235 512 221 526 213 539 206 555 203 572 203 590 206 607 212 623 217 633 224 641 238 655 253 665 272 673 288 676 308 676 328 672 343 666 358 657 370 648 391 629 401 622 443 602 455 595 465 587 477 573 487 557 492 540 494 521" fill="none" stroke-width="6.5" stroke-linejoin="round" class="s-derived"/><circle cx="360" cy="521" r="5" class="f-derived"/><circle cx="360" cy="521" r="10" fill="none" opacity="0.35" class="s-derived"/></svg>
