<svg viewBox="0 0 1000 760" aria-hidden="true" focusable="false"><rect width="1000" height="760" class="f-bg"/><line x1="783" y1="380" x2="471" y2="389" stroke-width="2.5" opacity="0.4" class="s-line"/><line x1="738" y1="351" x2="473" y2="387" stroke-width="2.5" opacity="0.4" class="s-line"/><line x1="617" y1="348" x2="482" y2="383" stroke-width="2.5" opacity="0.4" class="s-line"/><line x1="452" y1="387" x2="-20" y2="203" stroke-width="2.5" opacity="0.4" class="s-line"/><line x1="312" y1="454" x2="437" y2="399" stroke-width="2.5" opacity="0.4" class="s-line"/><line x1="230" y1="525" x2="447" y2="397" stroke-width="2.5" opacity="0.4" class="s-line"/><line x1="225" y1="567" x2="449" y2="397" stroke-width="2.5" opacity="0.4" class="s-line"/><line x1="289" y1="552" x2="447" y2="401" stroke-width="2.5" opacity="0.4" class="s-line"/><line x1="399" y1="466" x2="434" y2="421" stroke-width="2.5" opacity="0.4" class="s-line"/><line x1="500" y1="337" x2="495" y2="344" stroke-width="2.5" opacity="0.4" class="s-line"/><line x1="566" y1="203" x2="468" y2="374" stroke-width="2.5" opacity="0.4" class="s-line"/><line x1="581" y1="107" x2="464" y2="378" stroke-width="2.5" opacity="0.4" class="s-line"/><line x1="554" y1="87" x2="463" y2="378" stroke-width="2.5" opacity="0.4" class="s-line"/><line x1="507" y1="159" x2="462" y2="373" stroke-width="2.5" opacity="0.4" class="s-line"/><line x1="476" y1="298" x2="467" y2="348" stroke-width="2.5" opacity="0.4" class="s-line"/><line x1="476" y1="462" x2="471" y2="440" stroke-width="2.5" opacity="0.4" class="s-line"/><line x1="507" y1="601" x2="463" y2="407" stroke-width="2.5" opacity="0.4" class="s-line"/><line x1="554" y1="673" x2="463" y2="402" stroke-width="2.5" opacity="0.4" class="s-line"/><line x1="581" y1="653" x2="465" y2="401" stroke-width="2.5" opacity="0.4" class="s-line"/><line x1="566" y1="557" x2="470" y2="406" stroke-width="2.5" opacity="0.4" class="s-line"/><line x1="500" y1="423" x2="516" y2="435" stroke-width="2.5" opacity="0.4" class="s-line"/><line x1="399" y1="294" x2="441" y2="360" stroke-width="2.5" opacity="0.4" class="s-line"/><line x1="289" y1="208" x2="448" y2="378" stroke-width="2.5" opacity="0.4" class="s-line"/><line x1="225" y1="193" x2="449" y2="381" stroke-width="2.5" opacity="0.4" class="s-line"/><line x1="230" y1="235" x2="447" y2="382" stroke-width="2.5" opacity="0.4" class="s-line"/><line x1="312" y1="306" x2="439" y2="378" stroke-width="2.5" opacity="0.4" class="s-line"/><line x1="452" y1="373" x2="370" y2="186" stroke-width="2.5" opacity="0.4" class="s-line"/><line x1="617" y1="412" x2="483" y2="393" stroke-width="2.5" opacity="0.4" class="s-line"/><line x1="738" y1="409" x2="473" y2="390" stroke-width="2.5" opacity="0.4" class="s-line"/><line x1="783" y1="380" x2="471" y2="389" stroke-width="2.5" opacity="0.4" class="s-line"/><circle cx="459" cy="389" r="62" fill="none" stroke-width="3.5" stroke-dasharray="7 5" opacity="0.85" class="s-line"/><path d="M783 380L782 376 780 372 775 367 763 360 752 355 732 350 715 348 674 345 626 347 582 353 527 364 480 377 434 393 381 416 341 437 299 463 264 489 250 502 236 518 227 529 220 542 218 551 218 560 220 563 223 566 232 569 244 568 256 566 274 559 289 552 312 538 329 526 367 496 406 459 444 416 473 378 506 329 533 280 555 232 570 188 575 169 580 144 581 129 581 111 579 97 574 88 571 86 567 84 563 84 559 84 552 88 544 95 536 104 528 115 520 130 512 147 500 180 489 218 481 261 475 307 472 346 472 385 473 434 478 481 486 525 496 566 507 601 520 630 528 645 536 656 547 668 552 672 559 676 563 676 569 675 575 670 579 663 580 656 582 641 581 621 577 598 570 572 563 550 545 504 529 472 515 447 484 398 450 351 412 308 373 270 336 238 300 215 284 206 265 197 252 193 238 191 227 192 223 194 220 197 218 200 217 205 218 212 223 224 230 235 242 250 255 262 286 288 326 315 373 340 425 363 471 380 517 393 573 405 626 413 674 415 715 412 732 410 752 405 763 400 775 393 780 388 782 384 783 380" fill="none" stroke-width="5.75" class="s-base"/><path d="M471 389L474 387 499 376 521 364 545 350 566 336 587 319 605 303 623 284 641 264 656 243 670 221 682 199 692 180 701 157 711 129 718 103 722 78 726 51 727 28 727 3 725 -25 722 -49 716 -75 709 -103 700 -127 690 -151 677 -176 662 -202 648 -221 633 -241 615 -260 596 -278 574 -296 546 -316 520 -332 487 -348 456 -360 424 -369 390 -376 355 -380 325 -380 289 -378 258 -374 228 -367 199 -358 170 -347 137 -330 111 -314 82 -293 59 -274 35 -249 13 -222 -6 -194 -22 -166 -38 -133 -48 -105 -57 -72 -63 -40 -66 -5 -67 28 -65 59 -60 88 -53 121 -43 152 -30 184 -13 216 5 244 25 271 51 298 79 324 105 344 136 363 169 379 202 392 237 402 269 409 302 413 334 414 370 412 401 407 445 397 449 397 447 401 422 442 403 481 389 519 378 561 374 586 371 610 369 651 370 692 377 736 388 780 396 804 404 825 424 865 448 902 475 937 505 969 537 997 555 1010 575 1023 613 1044 647 1059 684 1072 720 1080 758 1086 798 1089 841 1087 879 1083 918 1074 957 1062 995 1046 1027 1029 1063 1005 1092 982 1125 951 1149 923 1171 892 1194 854 1212 813 1226 772 1236 730 1242 688 1243 647 1240 601 1233 557 1222 516 1207 479 1188 440 1164 401 1138 367 1108 335 1078 309 1042 284 1008 264 970 246 950 239 926 231 887 222 842 216 797 214 756 217 712 225 675 234 635 249 594 269 557 292 524 317 495 344 463 378 462 375 464 364 469 341 477 321 488 302 500 286 516 270 534 257 552 248 570 241 588 236 608 234 627 234 644 237 663 241 680 248 697 258 712 268 726 281 739 297 748 311 756 327 763 345 767 363 769 382 768 401 765 419 761 437 754 454 745 469 733 486 720 500 705 512 688 523 671 530 653 536 635 540 615 541 598 540 580 537 564 532 544 524 526 513 508 497 493 481 481 462 472 443 465 421 463 409 463 402 464 401 465 402 478 413 488 421 505 431 527 438 539 441 551 442 575 442 597 437 618 428 630 421 640 413 650 404 658 395 670 375 679 355 684 331 684 318 684 304 679 281 670 259 658 240 644 224 625 210 604 200 591 196 579 193 555 191 533 194 512 200 501 205 489 212 471 227 457 244 445 264 440 276 437 287 433 309 434 332 439 354 449 380 449 382 436 376 418 365 403 352 391 339 380 323 371 305 364 288 360 272 358 255 358 241 359 225 362 210 366 196 371 182 379 167 386 156 396 145 407 134 420 123 432 115 445 108 460 102 476 98 490 95 507 94 525 95 543 98 557 102 570 108 586 116 598 124 611 135 623 148 633 161 641 175 647 189 653 205 656 221 658 239 658 253 656 271 652 286 646 303 639 317 631 331 622 343 610 355 597 366 581 376 566 383 551 388 534 393 516 395 499 395 481 392 473 390 471 389" fill="none" stroke-width="6.5" stroke-linejoin="round" class="s-derived"/><circle cx="459" cy="389" r="4" class="f-line"/></svg>
