<svg viewBox="0 0 1000 760" aria-hidden="true" focusable="false"><rect width="1000" height="760" class="f-bg"/><line x1="266" y1="380" x2="890" y2="380" stroke-width="2.5" opacity="0.3" class="s-incident"/><line x1="890" y1="380" x2="266" y2="380" stroke-width="2.5" opacity="0.5" class="s-line"/><line x1="890" y1="380" x2="1514" y2="380" stroke-width="2.5" opacity="0.23" stroke-dasharray="5 5" class="s-line"/><line x1="252" y1="315" x2="876" y2="315" stroke-width="2.5" opacity="0.3" class="s-incident"/><line x1="876" y1="315" x2="457" y2="777" stroke-width="2.5" opacity="0.5" class="s-line"/><line x1="876" y1="315" x2="1295" y2="-148" stroke-width="2.5" opacity="0.23" stroke-dasharray="5 5" class="s-line"/><line x1="209" y1="253" x2="833" y2="253" stroke-width="2.5" opacity="0.3" class="s-incident"/><line x1="833" y1="253" x2="817" y2="877" stroke-width="2.5" opacity="0.5" class="s-line"/><line x1="833" y1="253" x2="849" y2="-371" stroke-width="2.5" opacity="0.23" stroke-dasharray="5 5" class="s-line"/><line x1="143" y1="202" x2="767" y2="202" stroke-width="2.5" opacity="0.3" class="s-incident"/><line x1="767" y1="202" x2="1072" y2="747" stroke-width="2.5" opacity="0.5" class="s-line"/><line x1="767" y1="202" x2="462" y2="-342" stroke-width="2.5" opacity="0.23" stroke-dasharray="5 5" class="s-line"/><line x1="55" y1="163" x2="679" y2="163" stroke-width="2.5" opacity="0.3" class="s-incident"/><line x1="679" y1="163" x2="1185" y2="528" stroke-width="2.5" opacity="0.5" class="s-line"/><line x1="679" y1="163" x2="172" y2="-201" stroke-width="2.5" opacity="0.23" stroke-dasharray="5 5" class="s-line"/><line x1="-44" y1="141" x2="580" y2="141" stroke-width="2.5" opacity="0.3" class="s-incident"/><line x1="580" y1="141" x2="1183" y2="302" stroke-width="2.5" opacity="0.5" class="s-line"/><line x1="580" y1="141" x2="-23" y2="-19" stroke-width="2.5" opacity="0.23" stroke-dasharray="5 5" class="s-line"/><line x1="-152" y1="137" x2="472" y2="137" stroke-width="2.5" opacity="0.3" class="s-incident"/><line x1="472" y1="137" x2="1094" y2="82" stroke-width="2.5" opacity="0.5" class="s-line"/><line x1="472" y1="137" x2="-149" y2="192" stroke-width="2.5" opacity="0.23" stroke-dasharray="5 5" class="s-line"/><line x1="-255" y1="150" x2="369" y2="150" stroke-width="2.5" opacity="0.3" class="s-incident"/><line x1="369" y1="150" x2="935" y2="-114" stroke-width="2.5" opacity="0.5" class="s-line"/><line x1="369" y1="150" x2="-196" y2="414" stroke-width="2.5" opacity="0.23" stroke-dasharray="5 5" class="s-line"/><line x1="-348" y1="180" x2="276" y2="180" stroke-width="2.5" opacity="0.3" class="s-incident"/><line x1="276" y1="180" x2="699" y2="-278" stroke-width="2.5" opacity="0.5" class="s-line"/><line x1="276" y1="180" x2="-147" y2="639" stroke-width="2.5" opacity="0.23" stroke-dasharray="5 5" class="s-line"/><line x1="-427" y1="226" x2="197" y2="226" stroke-width="2.5" opacity="0.3" class="s-incident"/><line x1="197" y1="226" x2="358" y2="-377" stroke-width="2.5" opacity="0.5" class="s-line"/><line x1="197" y1="226" x2="37" y2="829" stroke-width="2.5" opacity="0.23" stroke-dasharray="5 5" class="s-line"/><line x1="-481" y1="282" x2="143" y2="282" stroke-width="2.5" opacity="0.3" class="s-incident"/><line x1="143" y1="282" x2="-72" y2="-304" stroke-width="2.5" opacity="0.5" class="s-line"/><line x1="143" y1="282" x2="357" y2="868" stroke-width="2.5" opacity="0.23" stroke-dasharray="5 5" class="s-line"/><line x1="-510" y1="347" x2="114" y2="347" stroke-width="2.5" opacity="0.3" class="s-incident"/><line x1="114" y1="347" x2="-454" y2="88" stroke-width="2.5" opacity="0.5" class="s-line"/><line x1="114" y1="347" x2="681" y2="607" stroke-width="2.5" opacity="0.23" stroke-dasharray="5 5" class="s-line"/><line x1="-510" y1="413" x2="114" y2="413" stroke-width="2.5" opacity="0.3" class="s-incident"/><line x1="114" y1="413" x2="-454" y2="672" stroke-width="2.5" opacity="0.5" class="s-line"/><line x1="114" y1="413" x2="681" y2="153" stroke-width="2.5" opacity="0.23" stroke-dasharray="5 5" class="s-line"/><line x1="-481" y1="478" x2="143" y2="478" stroke-width="2.5" opacity="0.3" class="s-incident"/><line x1="143" y1="478" x2="-72" y2="1064" stroke-width="2.5" opacity="0.5" class="s-line"/><line x1="143" y1="478" x2="357" y2="-108" stroke-width="2.5" opacity="0.23" stroke-dasharray="5 5" class="s-line"/><line x1="-427" y1="534" x2="197" y2="534" stroke-width="2.5" opacity="0.3" class="s-incident"/><line x1="197" y1="534" x2="358" y2="1137" stroke-width="2.5" opacity="0.5" class="s-line"/><line x1="197" y1="534" x2="37" y2="-69" stroke-width="2.5" opacity="0.23" stroke-dasharray="5 5" class="s-line"/><line x1="-348" y1="580" x2="276" y2="580" stroke-width="2.5" opacity="0.3" class="s-incident"/><line x1="276" y1="580" x2="699" y2="1038" stroke-width="2.5" opacity="0.5" class="s-line"/><line x1="276" y1="580" x2="-147" y2="121" stroke-width="2.5" opacity="0.23" stroke-dasharray="5 5" class="s-line"/><line x1="-255" y1="610" x2="369" y2="610" stroke-width="2.5" opacity="0.3" class="s-incident"/><line x1="369" y1="610" x2="935" y2="874" stroke-width="2.5" opacity="0.5" class="s-line"/><line x1="369" y1="610" x2="-196" y2="346" stroke-width="2.5" opacity="0.23" stroke-dasharray="5 5" class="s-line"/><line x1="-152" y1="623" x2="472" y2="623" stroke-width="2.5" opacity="0.3" class="s-incident"/><line x1="472" y1="623" x2="1094" y2="678" stroke-width="2.5" opacity="0.5" class="s-line"/><line x1="472" y1="623" x2="-149" y2="568" stroke-width="2.5" opacity="0.23" stroke-dasharray="5 5" class="s-line"/><line x1="-44" y1="619" x2="580" y2="619" stroke-width="2.5" opacity="0.3" class="s-incident"/><line x1="580" y1="619" x2="1183" y2="458" stroke-width="2.5" opacity="0.5" class="s-line"/><line x1="580" y1="619" x2="-23" y2="779" stroke-width="2.5" opacity="0.23" stroke-dasharray="5 5" class="s-line"/><line x1="55" y1="597" x2="679" y2="597" stroke-width="2.5" opacity="0.3" class="s-incident"/><line x1="679" y1="597" x2="1185" y2="232" stroke-width="2.5" opacity="0.5" class="s-line"/><line x1="679" y1="597" x2="172" y2="961" stroke-width="2.5" opacity="0.23" stroke-dasharray="5 5" class="s-line"/><line x1="143" y1="558" x2="767" y2="558" stroke-width="2.5" opacity="0.3" class="s-incident"/><line x1="767" y1="558" x2="1072" y2="13" stroke-width="2.5" opacity="0.5" class="s-line"/><line x1="767" y1="558" x2="462" y2="1102" stroke-width="2.5" opacity="0.23" stroke-dasharray="5 5" class="s-line"/><line x1="209" y1="507" x2="833" y2="507" stroke-width="2.5" opacity="0.3" class="s-incident"/><line x1="833" y1="507" x2="817" y2="-117" stroke-width="2.5" opacity="0.5" class="s-line"/><line x1="833" y1="507" x2="849" y2="1131" stroke-width="2.5" opacity="0.23" stroke-dasharray="5 5" class="s-line"/><line x1="252" y1="445" x2="876" y2="445" stroke-width="2.5" opacity="0.3" class="s-incident"/><line x1="876" y1="445" x2="457" y2="-17" stroke-width="2.5" opacity="0.5" class="s-line"/><line x1="876" y1="445" x2="1295" y2="908" stroke-width="2.5" opacity="0.23" stroke-dasharray="5 5" class="s-line"/><line x1="266" y1="380" x2="890" y2="380" stroke-width="2.5" opacity="0.3" class="s-incident"/><line x1="890" y1="380" x2="266" y2="380" stroke-width="2.5" opacity="0.5" class="s-line"/><line x1="890" y1="380" x2="1514" y2="380" stroke-width="2.5" opacity="0.23" stroke-dasharray="5 5" class="s-line"/><path d="M890 380L888 357 883 333 873 309 861 287 844 265 825 245 802 226 777 209 750 193 719 178 688 166 652 156 615 147 577 141 539 137 502 136 463 137 426 141 388 146 353 154 318 164 284 177 255 191 225 207 200 224 177 244 157 264 140 287 127 308 118 332 112 355 110 379 112 404 117 426 127 450 139 472 155 494 176 515 197 534 224 552 251 567 282 582 316 595 349 605 383 613 421 619 460 622 499 624 539 623 575 619 613 613 648 606 681 596 715 583 746 569 776 552 802 534 824 516 843 496 860 474 873 451 883 427 888 403 890 380" fill="none" stroke-width="5.75" class="s-base"/><path d="M814 380L819 377 824 371 828 363 830 353 831 342 830 330 827 318 823 306 811 282 796 259 775 237 751 216 725 198 699 182 669 169 637 157 604 148 572 142 536 138 503 136M503 624L536 622 572 618 604 612 637 603 669 591 699 578 725 562 751 544 775 523 796 501 811 478 823 454 827 442 830 430 831 418 830 407 828 397 824 389 819 383 814 380" fill="none" stroke-width="6.5" stroke-linejoin="round" class="s-derived"/><path d="M499 136L470 137 437 141 409 145 378 153 351 161 323 172 297 185 274 198 252 213 231 230 214 248 198 267 185 288 177 307 171 326 169 344 170 357 174 368 180 376 186 380 181 383 176 389 172 396 170 406 169 416 170 428 172 440 176 451 186 474 201 496 219 517 239 537 266 557 295 574 326 589 358 601 391 611 426 618 462 622 499 624" fill="none" stroke-width="5.75" stroke-dasharray="6 4" class="s-derived"/><line x1="859" y1="285" x2="827" y2="365" stroke-width="3" class="s-probe"/><circle cx="685" cy="403" r="210" fill="none" stroke-width="3" class="s-probe"/><circle cx="685" cy="403" r="4" class="f-probe"/><line x1="859" y1="285" x2="819" y2="227" stroke-width="4" stroke-linecap="round" class="s-probeTangent"/><line x1="859" y1="285" x2="801" y2="324" stroke-width="4" stroke-linecap="round" class="s-probeNormal"/><circle cx="859" cy="285" r="5" fill="none" stroke-width="4" class="s-probe"/></svg>
